<?xml version="1.0" standalone="no"?>
<svg xmlns:xlink="http://www.w3.org/1999/xlink" id="wave" style="transform:rotate(0deg); transition: 0.3s" viewBox="0 0 1440 130" version="1.1" xmlns="http://www.w3.org/2000/svg"><defs><linearGradient id="sw-gradient-0" x1="0" x2="0" y1="1" y2="0"><stop stop-color="rgba(149.289, 21.381, 175.633, 1)" offset="0%"/><stop stop-color="rgba(255, 11, 247.079, 1)" offset="100%"/></linearGradient></defs><path style="transform:translate(0, 0px); opacity:1" fill="url(#sw-gradient-0)" d="M0,0L80,19.5C160,39,320,78,480,80.2C640,82,800,48,960,34.7C1120,22,1280,30,1440,30.3C1600,30,1760,22,1920,17.3C2080,13,2240,13,2400,15.2C2560,17,2720,22,2880,21.7C3040,22,3200,17,3360,15.2C3520,13,3680,13,3840,17.3C4000,22,4160,30,4320,39C4480,48,4640,56,4800,56.3C4960,56,5120,48,5280,56.3C5440,65,5600,91,5760,91C5920,91,6080,65,6240,54.2C6400,43,6560,48,6720,47.7C6880,48,7040,43,7200,41.2C7360,39,7520,39,7680,41.2C7840,43,8000,48,8160,41.2C8320,35,8480,17,8640,17.3C8800,17,8960,35,9120,39C9280,43,9440,35,9600,30.3C9760,26,9920,26,10080,23.8C10240,22,10400,17,10560,19.5C10720,22,10880,30,11040,43.3C11200,56,11360,74,11440,82.3L11520,91L11520,130L11440,130C11360,130,11200,130,11040,130C10880,130,10720,130,10560,130C10400,130,10240,130,10080,130C9920,130,9760,130,9600,130C9440,130,9280,130,9120,130C8960,130,8800,130,8640,130C8480,130,8320,130,8160,130C8000,130,7840,130,7680,130C7520,130,7360,130,7200,130C7040,130,6880,130,6720,130C6560,130,6400,130,6240,130C6080,130,5920,130,5760,130C5600,130,5440,130,5280,130C5120,130,4960,130,4800,130C4640,130,4480,130,4320,130C4160,130,4000,130,3840,130C3680,130,3520,130,3360,130C3200,130,3040,130,2880,130C2720,130,2560,130,2400,130C2240,130,2080,130,1920,130C1760,130,1600,130,1440,130C1280,130,1120,130,960,130C800,130,640,130,480,130C320,130,160,130,80,130L0,130Z"/></svg>