<svg xmlns="http://www.w3.org/2000/svg" width="590.806" height="531.829" viewBox="0 0 590.806 531.829"><g transform="translate(-379.918 -264.722)"><g transform="translate(817.865 316.257)"><g transform="translate(0 0)"><path d="M1680.32,749.584a1.481,1.481,0,0,1-1.4-1.007L1563.117,405.9a1.48,1.48,0,1,1,2.805-.948l115.8,342.676a1.482,1.482,0,0,1-1.4,1.955Z" transform="translate(-1563.038 -403.946)" fill="#514455"/></g><g transform="translate(1.158 0.001)"><path d="M1567.647,749.585a1.482,1.482,0,0,1-1.4-1.951l114.644-342.676a1.481,1.481,0,0,1,2.808.939L1569.05,748.574A1.48,1.48,0,0,1,1567.647,749.585Z" transform="translate(-1566.165 -403.947)" fill="#514455"/></g><rect width="114.856" height="7.746" transform="translate(1.481 81.816)" fill="#d4784b"/><rect width="114.856" height="7.746" transform="translate(0.286 168.946)" fill="#d4784b"/><rect width="114.856" height="7.746" transform="translate(2.338 249.569)" fill="#d4784b"/><g transform="translate(0 0.001)"><path d="M1680.321,749.585h-115.8a1.481,1.481,0,0,1-1.481-1.481V405.429a1.48,1.48,0,0,1,1.481-1.481h115.8a1.48,1.48,0,0,1,1.48,1.481V748.1A1.481,1.481,0,0,1,1680.321,749.585ZM1566,746.624h112.84V406.909H1566Z" transform="translate(-1563.039 -403.948)" fill="#514455"/></g></g><g transform="translate(440.816 685.974)"><g transform="translate(18.173 1.968)"><path d="M628.9,1416.414c-5.994.707-12.068.824-19.445-2.126l-15.93,89.875q10.4,1.083,20.86,1.771c.874-6.352,1.777-14.2,2.66-23.908C619.918,1450.47,625.212,1428.641,628.9,1416.414Z" transform="translate(-593.53 -1411.982)" fill="#ffc887"/><path d="M1135.175,1413.839c-32.57,1.563-64.9,3.621-96.627-2.025-56.1-9.984-108.806,3.8-165.393-2.344-19.638-2.133-39.472,2.476-58.7,3.951-2.657,13.779-6.019,34.5-8.4,60.737-1.069,11.76-1.963,21.171-2.707,28.694,28.038-1.445,55.7-4.984,84.076-1.4,19.572,2.474,38.648,7.954,58.276,10.079,28.363,3.071,56.36-5.073,84.579-6.282,29.709-1.273,58.252,9.81,88.021,11.263,1.375-7.508,2.934-18.654,4.433-35.141C1125.754,1448.09,1131.478,1425.626,1135.175,1413.839Z" transform="translate(-725.679 -1408.058)" fill="#ffc887"/><path d="M697.831,1416.356a50.247,50.247,0,0,0-14.859.046c-3.544,11.12-9.485,33.658-12.533,67.188-.858,9.443-1.737,17.249-2.612,23.716q8.167.457,16.339.7c1.069-6.544,2.232-14.588,3.464-24.477C691.141,1455.341,695.245,1430.8,697.831,1416.356Z" transform="translate(-640.325 -1412.947)" fill="#ffc887"/><path d="M1705.41,1421.221c-5.273.142-10.542.346-15.806.579-3.477,10.615-9.774,33.594-12.945,68.463-1.416,15.573-2.887,26.709-4.3,34.692.623,0,1.246,0,1.87-.012q7.707-.153,15.422-.5c1.594-7.832,3.54-19.493,5.7-36.8C1698.795,1459.932,1702.818,1435.757,1705.41,1421.221Z" transform="translate(-1273.014 -1416.348)" fill="#ffc887"/><path d="M761.463,1421.744a90.3,90.3,0,0,1-17.958-1.068c-2.57,14.364-6.644,38.733-10.132,66.734-1.113,8.932-2.235,16.893-3.351,23.833,1.041.023,2.082.051,3.123.069,5.8.1,11.579,0,17.336-.214.757-7.639,1.68-17.325,2.8-29.593C755.589,1456.059,758.819,1435.706,761.463,1421.744Z" transform="translate(-679.497 -1416.005)" fill="#ffc887"/><path d="M1766.609,1420.716q-6.7-.094-13.4.015c-2.562,14.269-6.707,38.948-10.25,67.386-1.809,14.525-3.643,26.506-5.438,35.65q8.22-.439,16.432-1.071c.884-8.523,2.071-20.664,3.639-37.922A619.486,619.486,0,0,1,1766.609,1420.716Z" transform="translate(-1314.057 -1416.004)" fill="#ffc887"/><path d="M1834.422,1422.666c-7.237-.779-14.475-1.239-21.71-1.473a609.01,609.01,0,0,0-9.148,64.509c-1.493,16.423-2.645,28.265-3.521,36.778q11.438-.983,22.825-2.3Z" transform="translate(-1353.437 -1416.331)" fill="#ffc887"/><path d="M671.67,1417.393c-2.464.314-4.863.692-7.273.977-3.692,12.227-8.986,34.056-11.855,65.612-.883,9.7-1.785,17.556-2.66,23.908q3.32.222,6.642.408c.875-6.468,1.754-14.273,2.612-23.716C662.186,1451.051,668.127,1428.513,671.67,1417.393Z" transform="translate(-629.023 -1413.938)" fill="#de9c7a"/><path d="M732.133,1418.531c-1.257-.213-2.512-.449-3.759-.734-.936-.214-1.847-.383-2.742-.527-2.586,14.446-6.69,38.984-10.2,67.176-1.232,9.889-2.395,17.933-3.464,24.477q3.343.1,6.683.176c1.117-6.941,2.239-14.9,3.351-23.834C725.489,1457.264,729.563,1432.894,732.133,1418.531Z" transform="translate(-668.125 -1413.86)" fill="#de9c7a"/><path d="M803.084,1422.546c-2.279.175-4.55.3-6.811.375-2.643,13.963-5.874,34.316-8.188,59.762-1.115,12.268-2.038,21.954-2.8,29.593q3.345-.125,6.683-.3c.744-7.523,1.638-16.934,2.707-28.694C797.065,1457.048,800.427,1436.325,803.084,1422.546Z" transform="translate(-714.308 -1417.183)" fill="#de9c7a"/><path d="M1678.164,1422.786q-3.548.158-7.093.329c-3.7,11.787-9.421,34.251-12.447,67.535-1.5,16.487-3.058,27.632-4.433,35.141q3.351.164,6.723.151c1.417-7.983,2.889-19.12,4.3-34.692C1668.389,1456.38,1674.687,1433.4,1678.164,1422.786Z" transform="translate(-1261.574 -1417.334)" fill="#de9c7a"/><path d="M1741.587,1420.829q-3.378.053-6.753.145c-2.592,14.536-6.615,38.711-10.067,66.422-2.157,17.31-4.1,28.971-5.7,36.8q3.414-.148,6.829-.335c1.795-9.144,3.629-21.125,5.438-35.65C1734.88,1459.778,1739.025,1435.1,1741.587,1420.829Z" transform="translate(-1302.438 -1416.102)" fill="#de9c7a"/><path d="M1801.29,1420.938c-2.241-.073-4.482-.118-6.722-.15a619.51,619.51,0,0,0-9.02,64.059c-1.569,17.258-2.756,29.4-3.639,37.922q3.358-.258,6.713-.544c.876-8.513,2.028-20.355,3.521-36.778A609,609,0,0,1,1801.29,1420.938Z" transform="translate(-1342.015 -1416.076)" fill="#de9c7a"/></g><path d="M605.606,1407.016s-13.514-5.675-17.582-3.947a17.982,17.982,0,0,0-.613,3.947l17.947,1.4Z" transform="translate(-571.503 -1402.742)" fill="#de9c7a"/><path d="M583.974,1531.27s-14.151-3.819-17.951-1.564a17.994,17.994,0,0,0-.08,3.993l17.973-1.011Z" transform="translate(-557.937 -1482.26)" fill="#de9c7a"/><path d="M594.477,1453.434s-12.525-1.324-19.112-2.628l-1.08,3.987s7.99,3.024,19.328.432l.55-.017Z" transform="translate(-563.236 -1433.014)" fill="#de9c7a"/><path d="M564.547,1650.277c.9.666-9.387-1.075-19.209-1.783l-.9,4.031s8.116,2.668,19.328-.421l.548-.042Z" transform="translate(-544.435 -1557.526)" fill="#de9c7a"/><path d="M574.495,1569.727s-12.525-1.324-19.112-2.628l-1.08,3.987s7.99,3.023,19.328.432l.549-.018Z" transform="translate(-550.65 -1506.26)" fill="#de9c7a"/><path d="M587.793,1492.507s-15.8-2.23-19.989,0l1.624,3.482,18.153-2.285Z" transform="translate(-559.154 -1458.655)" fill="#de9c7a"/><path d="M567.273,1615.178s-15.8-2.23-19.989,0l1.624,3.482,18.153-2.285Z" transform="translate(-546.229 -1535.918)" fill="#de9c7a"/><path d="M1860.912,1684.844s13.514,5.674,17.582,3.947a17.987,17.987,0,0,0,.612-3.947l-17.947-1.4Z" transform="translate(-1373.602 -1579.539)" fill="#de9c7a"/><path d="M1877.325,1550.848s14.151,3.819,17.952,1.563a17.994,17.994,0,0,0,.08-3.993l-17.973,1.011Z" transform="translate(-1383.939 -1494.494)" fill="#de9c7a"/><path d="M1865.644,1632.855s12.526,1.324,19.112,2.628l1.08-3.988s-7.99-3.023-19.328-.432l-.549.017Z" transform="translate(-1376.582 -1545.887)" fill="#de9c7a"/><path d="M1891.807,1424.155c-.9-.666,9.387,1.075,19.209,1.783l.9-4.031s-8.116-2.669-19.328.42l-.548.042Z" transform="translate(-1393.026 -1414.139)" fill="#de9c7a"/><path d="M1879.878,1511.943s12.525,1.324,19.112,2.628l1.08-3.987s-7.99-3.023-19.328-.432l-.55.017Z" transform="translate(-1385.547 -1469.732)" fill="#de9c7a"/><path d="M1872.526,1589.32s15.8,2.23,19.989,0l-1.624-3.482-18.153,2.285Z" transform="translate(-1380.917 -1518.063)" fill="#de9c7a"/><path d="M1886.953,1468.134s15.8,2.23,19.989,0l-1.624-3.482-18.153,2.285Z" transform="translate(-1390.003 -1441.735)" fill="#de9c7a"/></g><g transform="translate(379.918 500.947)"><g transform="translate(68.283 59.121)"><path d="M564.387,1096.972s-.156-13.359,17.193-25.2,34.387-11.832,39.972-2.158c5.205,9.016-12.6,23.768-23.535,28.663S570.4,1103.66,564.387,1096.972Z" transform="translate(-564.387 -1062.605)" fill="#9cc184"/></g><g transform="translate(50.055 103.615)"><path d="M546.763,1187.694c1.651,4.7-1.539,11.655-3.875,15.7-3.227,5.6-8.229,10.542-14.436,12.829-2.034.75-4.342,1.852-6.2,1-8.159-3.738-8.821-14.813-4.4-21.53,4.719-7.168,13.554-11.268,21.754-12.817C542.22,1182.389,545.592,1184.36,546.763,1187.694Z" transform="translate(-515.143 -1182.807)" fill="#154224"/></g><g transform="translate(9.725 62.377)"><path d="M412.073,1072.184a8.8,8.8,0,0,1,3.985-.779c7.484.255,14.964,4.414,20.677,8.246,6.158,4.131,11.923,9.435,14.78,15.982,6.652,15.246,3.655,25.266,3.561,25.575-.557,1.809-11.95-2.64-13.265-3.179-15.693-6.422-31.522-18.475-35.382-34.252A10.641,10.641,0,0,1,412.073,1072.184Z" transform="translate(-406.19 -1071.4)" fill="#2b6c47"/></g><g transform="translate(5.893)"><g transform="translate(0.268 92.279)"><path d="M402.266,1154.027c8.446-5.677,17.407,2.951,22.139,9.448,3.676,5.048,9.175,22.024,5.884,25.417-5.344,5.51-25.094-4.7-30.346-13.19C395.57,1168.636,394.563,1159.2,402.266,1154.027Z" transform="translate(-396.562 -1152.18)" fill="#6b9b64"/></g><g transform="translate(28.651)"><path d="M498.765,1006.992s-19.767-9.531-24.511-43.7,7.715-59.23,26.025-60.379c17.066-1.071,25.763,35.894,24.972,55.561S513,1003.031,498.765,1006.992Z" transform="translate(-473.241 -902.888)" fill="#81b070"/></g><g transform="translate(28.652 0.474)"><g transform="translate(21.072)"><path d="M534.428,905.019c2.512,24.2,1.505,48.886.638,73.147-.842,23.545-2.183,47.074-3.83,70.576-.337,4.8-.682,27.3-1.066,32.1-.091,1.141,5,2.219,5.09,1.084,1.086-13.6-.935-45.069-.133-58.69,1.561-26.507,2.394-53.99,2.469-80.547a355.419,355.419,0,0,0-1.388-37.667c-.117-1.128-1.9-1.14-1.779,0Z" transform="translate(-530.169 -904.169)" fill="#28513f"/></g><g transform="translate(7.552 12.355)"><path d="M493.722,938.062a94.688,94.688,0,0,0,7.075,7.269c3.649,3.394,7.813,7.133,12.66,8.653.365.114.521-.458.158-.572-4.962-1.555-9.212-5.485-12.914-8.983-2.284-2.158-4.5-4.411-6.56-6.786-.25-.289-.668.132-.419.419Z" transform="translate(-493.646 -937.545)" fill="#28513f"/></g><g transform="translate(3.009 22.438)"><path d="M481.43,965.21a114.18,114.18,0,0,0,8.5,9.766c4.366,4.511,9.59,9.8,15.8,11.6a.3.3,0,0,0,.158-.572c-6.213-1.8-11.422-7.173-15.777-11.7a114.519,114.519,0,0,1-8.164-9.394c-.229-.3-.745,0-.512.3Z" transform="translate(-481.371 -964.786)" fill="#28513f"/></g><g transform="translate(0 38.247)"><path d="M473.318,1008.011a90.134,90.134,0,0,0,8.739,8.8c5.379,4.793,11.412,9.33,18.307,11.651.362.122.518-.45.158-.572-7.031-2.367-13.172-7.084-18.613-12.009a89.644,89.644,0,0,1-8.172-8.287c-.248-.291-.665.13-.419.419Z" transform="translate(-473.243 -1007.493)" fill="#28513f"/></g><g transform="translate(0.58 54.813)"><path d="M474.9,1052.753a74.386,74.386,0,0,0,8.577,7.212c5.364,3.93,11.458,7.568,18.119,8.635.373.06.534-.511.158-.572-6.616-1.06-12.648-4.671-17.977-8.575a73.342,73.342,0,0,1-8.457-7.119.3.3,0,0,0-.419.419Z" transform="translate(-474.811 -1052.247)" fill="#28513f"/></g><g transform="translate(4.204 72.66)"><path d="M484.7,1100.959a46.767,46.767,0,0,0,21.65,10.864c.373.07.533-.5.158-.572a46.2,46.2,0,0,1-21.389-10.712c-.285-.252-.706.166-.419.419Z" transform="translate(-484.601 -1100.462)" fill="#28513f"/></g><g transform="translate(9.692 87.022)"><path d="M499.567,1139.818a79.514,79.514,0,0,0,16.119,7.6c.361.125.517-.448.158-.571a78.843,78.843,0,0,1-15.977-7.545c-.324-.2-.622.31-.3.512Z" transform="translate(-499.428 -1139.26)" fill="#28513f"/></g><g transform="translate(27.034 14.192)"><path d="M563.1,942.713a12.254,12.254,0,0,1-2.843,3.975c-3.916,4.194-8.884,7.367-13.834,10.188a.3.3,0,0,0,.3.512c5.052-2.878,10.156-6.137,14.117-10.455a12.561,12.561,0,0,0,2.833-4.062c.122-.362-.45-.518-.572-.158Z" transform="translate(-546.277 -942.509)" fill="#28513f"/></g><g transform="translate(28.528 28.219)"><path d="M570.5,980.481c-2.475,2.195-5.006,4.33-7.567,6.424-3.916,3.2-7.951,6.647-12.477,8.968-.34.174-.04.686.3.512,4.467-2.291,8.455-5.682,12.327-8.839,2.654-2.164,5.275-4.373,7.837-6.645.286-.254-.135-.672-.419-.419Z" transform="translate(-550.311 -980.403)" fill="#28513f"/></g><g transform="translate(27.341 43.636)"><path d="M571.219,1022.105c-7.734,5.3-15.583,10.815-23.964,15.043-.341.172-.041.684.3.512,8.381-4.228,16.229-9.746,23.964-15.043.313-.214.017-.729-.3-.512Z" transform="translate(-547.105 -1022.053)" fill="#28513f"/></g><g transform="translate(27.94 56.774)"><path d="M572.179,1057.627a75.711,75.711,0,0,1-7.792,6.323c-4.576,3.278-9.778,6.544-15.448,7.369-.376.055-.216.626.158.572,5.716-.831,10.979-4.126,15.589-7.429a76.776,76.776,0,0,0,7.912-6.417c.278-.262-.141-.681-.419-.419Z" transform="translate(-548.724 -1057.544)" fill="#28513f"/></g><g transform="translate(26.167 75.692)"><path d="M565.577,1108.685q-4.588,2.218-9.277,4.224c-2.385,1.024-4.79,2.018-7.247,2.858-1.295.443-3.349,1.4-4.751.993a.3.3,0,0,0-.158.572c1.333.384,3.1-.35,4.338-.75,2.469-.8,4.877-1.786,7.264-2.8q5.118-2.168,10.131-4.587c.344-.166.043-.678-.3-.512Z" transform="translate(-543.935 -1108.652)" fill="#28513f"/></g><g transform="translate(26.163 89.729)"><path d="M558.688,1146.614a51.319,51.319,0,0,1-14.552,5.108c-.373.078-.215.65.158.572a51.851,51.851,0,0,0,14.694-5.168.3.3,0,0,0-.3-.512Z" transform="translate(-543.923 -1146.573)" fill="#28513f"/></g><g transform="translate(13.961 4.642)"><path d="M511.046,917.215c1.578,1.578,3.229,3.09,4.924,4.541,2.125,1.818,4.578,4.1,7.306,4.934.733.225.986.019,1.639-.326q1.786-.943,3.478-2.052c2.776-1.82,5.763-4.071,7.073-7.227.146-.352-.428-.506-.572-.158-1.321,3.185-4.54,5.449-7.354,7.229q-1.5.95-3.078,1.776c-.781.408-.912.288-1.794-.121a31.853,31.853,0,0,1-7.264-5.332c-1.346-1.19-2.668-2.412-3.939-3.683a.3.3,0,0,0-.419.419Z" transform="translate(-510.959 -916.708)" fill="#28513f"/></g></g><g transform="translate(0 92.787)"><g transform="translate(4.674 1.954)"><path d="M456.111,1202.249c-5.888-2.094-11.471-5.546-16.556-9.11a93.5,93.5,0,0,1-29.445-33.859c-.524-1.019-2.059-.12-1.536.9a95.337,95.337,0,0,0,29.576,34.139,73.592,73.592,0,0,0,17.488,9.646c1.081.384,1.546-1.334.473-1.715Z" transform="translate(-408.467 -1158.833)" fill="#28513f"/></g><path d="M396.051,1165.156a39.557,39.557,0,0,0,4.837.831,20.1,20.1,0,0,0,3.968.121c.619-.054,1.616-.065,2.063-.531a6.489,6.489,0,0,0,.768-1.563q.73-1.531,1.4-3.092a27.448,27.448,0,0,0,2.239-7.086c.048-.377-.545-.374-.593,0a25.942,25.942,0,0,1-2.061,6.557c-.452,1.08-.935,2.148-1.437,3.205a5.945,5.945,0,0,1-.766,1.568c-.418.4-1.664.367-2.294.389a23.056,23.056,0,0,1-3.462-.182,38.4,38.4,0,0,1-4.5-.789c-.371-.089-.529.483-.158.572Z" transform="translate(-395.839 -1153.554)" fill="#28513f"/><g transform="translate(2.714 4.375)"><path d="M403.453,1183.186a65.663,65.663,0,0,0,6.624-1.113c1.954-.432,5.172-.9,6.5-2.556a46.336,46.336,0,0,0,4.021-6.524c1.182-2.133,2.839-4.8,2.828-7.332a.3.3,0,0,0-.593,0c.011,2.525-1.718,5.2-2.91,7.324a44.289,44.289,0,0,1-3.763,6.091c-1.3,1.621-4.473,2.039-6.416,2.462-2.076.452-4.184.81-6.295,1.054-.375.043-.379.637,0,.593Z" transform="translate(-403.171 -1165.374)" fill="#28513f"/></g><g transform="translate(8.613 10.502)"><path d="M419.479,1200.382c2.35-.317,4.7-.708,7.019-1.18a37.169,37.169,0,0,0,4.614-1.159,3.315,3.315,0,0,0,1.723-.937,16.738,16.738,0,0,0,1.284-2.5c.706-1.411,1.389-2.833,2.038-4.271,1.133-2.511,2.56-5.33,2.744-8.123.025-.381-.568-.38-.593,0-.184,2.785-1.67,5.644-2.8,8.135-.607,1.332-1.242,2.651-1.9,3.96a12.44,12.44,0,0,1-1.262,2.461,5.022,5.022,0,0,1-2.333,1c-1.483.427-3,.743-4.513,1.034q-3.073.591-6.178,1.014c-.376.051-.216.622.158.572Z" transform="translate(-419.107 -1181.924)" fill="#28513f"/></g><g transform="translate(18.223 21.604)"><path d="M445.354,1225.332a18.7,18.7,0,0,0,3.523-.548,34.554,34.554,0,0,0,3.912-1.16,8.993,8.993,0,0,0,2.984-1.282,15.983,15.983,0,0,0,2.413-4.011,14.623,14.623,0,0,0,1.975-6.126c.011-.382-.582-.381-.593,0a14.474,14.474,0,0,1-2.061,6.145,14.888,14.888,0,0,1-2.193,3.617c-.686.662-2.445,1.015-3.382,1.33a33.624,33.624,0,0,1-3.381.953,17.451,17.451,0,0,1-3.2.49c-.381.013-.382.606,0,.593Z" transform="translate(-445.068 -1211.918)" fill="#28513f"/></g></g></g><g transform="translate(65.685 89.338)"><path d="M600.937,1155.416c1.743,10.027-9.787,14.694-17.649,16.369-6.108,1.3-23.851-.6-25.609-4.983-2.855-7.125,14.52-21,24.409-22.338C590.325,1143.349,599.347,1146.271,600.937,1155.416Z" transform="translate(-557.366 -1144.238)" fill="#91b471"/></g><g transform="translate(71.727 89.126)"><g transform="translate(25.612 1.837)"><path d="M647.772,1148.738a39.536,39.536,0,0,0-2.73,4.079,20.13,20.13,0,0,0-1.727,3.573c-.2.588-.6,1.5-.356,2.1a6.5,6.5,0,0,0,1.115,1.338q1.1,1.291,2.255,2.535a27.418,27.418,0,0,0,5.56,4.932c.325.2.563-.345.241-.542a25.958,25.958,0,0,1-5.148-4.553c-.8-.853-1.58-1.729-2.342-2.618a5.927,5.927,0,0,1-1.119-1.339c-.194-.544.342-1.67.579-2.254a23.04,23.04,0,0,1,1.577-3.088,38.476,38.476,0,0,1,2.554-3.788c.232-.3-.225-.68-.458-.377Z" transform="translate(-642.882 -1148.626)" fill="#28513f"/></g><g transform="translate(17.262)"><path d="M622.763,1143.842a65.644,65.644,0,0,0-1.683,6.5c-.4,1.96-1.29,5.088-.316,6.982a46.31,46.31,0,0,0,4.32,6.33c1.466,1.949,3.228,4.549,5.544,5.57a.3.3,0,0,0,.242-.542c-2.311-1.019-4.05-3.688-5.5-5.642a44.221,44.221,0,0,1-4.029-5.918c-.95-1.852-.04-4.916.366-6.863.433-2.08.965-4.15,1.6-6.178.113-.36-.427-.606-.542-.242Z" transform="translate(-620.324 -1143.663)" fill="#28513f"/></g><g transform="translate(8.402 2.657)"><path d="M599.061,1151.073q-1,3.413-1.782,6.891a37.132,37.132,0,0,0-.822,4.686,3.316,3.316,0,0,0,.154,1.955,16.708,16.708,0,0,0,1.763,2.193q1.5,1.828,3.07,3.6c1.832,2.058,3.825,4.509,6.3,5.816.338.179.578-.364.242-.542-2.468-1.3-4.474-3.825-6.286-5.876q-1.454-1.645-2.844-3.346a12.4,12.4,0,0,1-1.733-2.155,5.016,5.016,0,0,1,.04-2.537c.215-1.528.543-3.041.894-4.543q.712-3.047,1.591-6.055c.107-.364-.48-.451-.586-.089Z" transform="translate(-596.388 -1150.841)" fill="#28513f"/></g><g transform="translate(0 8.944)"><path d="M575.353,1168a18.727,18.727,0,0,0-.935,3.441,34.674,34.674,0,0,0-.535,4.045,9,9,0,0,0-.044,3.248,16,16,0,0,0,2.68,3.838,14.629,14.629,0,0,0,4.79,4.3c.344.166.585-.376.242-.542a14.473,14.473,0,0,1-4.772-4.386,14.89,14.89,0,0,1-2.41-3.477c-.325-.9.07-2.646.163-3.63a33.769,33.769,0,0,1,.507-3.476,17.5,17.5,0,0,1,.856-3.119c.143-.353-.4-.6-.542-.241Z" transform="translate(-573.691 -1167.824)" fill="#28513f"/></g></g><g transform="translate(59.333 98.629)"><path d="M588.823,1169.337a95.34,95.34,0,0,0-43.228,13.1c-1.8,1.066-3.611,2.2-5.388,3.388v2.141c1.937-1.335,3.921-2.585,5.891-3.766a93.5,93.5,0,0,1,42.919-13.094C590.161,1171.043,589.965,1169.274,588.823,1169.337Z" transform="translate(-540.207 -1169.336)" fill="#28513f"/></g><g transform="translate(58.781 120.677)"><g transform="translate(11.577)"><path d="M570.05,1232.731s9.246-7.017,29.677-2.059,31.847,17.629,28.4,28.264c-3.212,9.913-26.111,6.571-37.083,1.721S569.11,1241.684,570.05,1232.731Z" transform="translate(-569.994 -1228.899)" fill="#488e53"/></g><g transform="translate(0 2.156)"><path d="M607.389,1265.5a.886.886,0,0,1-.64-.272c-.331-.343-33.451-34.23-61.444-27.964-2.265.569-4.753,1.787-4.811,2.684a.89.89,0,1,1-1.775-.115c.174-2.666,5.175-4.049,6.176-4.3,15.21-3.407,31.586,4.542,42.65,11.807a134.3,134.3,0,0,1,20.485,16.652.889.889,0,0,1-.64,1.507Z" transform="translate(-538.717 -1234.722)" fill="#28513f"/></g><g transform="translate(58.352 22.238)"><path d="M696.7,1303.485a.3.3,0,0,1-.3-.274,43.437,43.437,0,0,1,1.257-12.411.3.3,0,0,1,.175-.2,26.864,26.864,0,0,1,9.913-1.612.3.3,0,1,1-.017.593,26.513,26.513,0,0,0-9.532,1.513,42.75,42.75,0,0,0-1.205,12.072.3.3,0,0,1-.272.318Z" transform="translate(-696.354 -1288.976)" fill="#28513f"/></g><g transform="translate(38.402 7.999)"><path d="M644.719,1277.267a.3.3,0,0,1-.286-.219c-.188-.691-4.55-17.021.335-23.686a.3.3,0,0,1,.15-.107c.533-.169,13.09-4.117,17.517-2.242a.3.3,0,0,1-.232.546c-4.036-1.709-15.842,1.869-17.013,2.233-4.626,6.491-.23,22.936-.185,23.1a.3.3,0,0,1-.208.364A.32.32,0,0,1,644.719,1277.267Z" transform="translate(-642.461 -1250.508)" fill="#28513f"/></g><g transform="translate(28.873 2.882)"><path d="M618.724,1265a.3.3,0,0,1-.288-.226c-.031-.128-3.1-12.879-.958-24.946a.3.3,0,0,1,.21-.233c.1-.029,10.164-2.9,16.407-2.913h0a.3.3,0,0,1,0,.593c-5.707.008-14.693,2.456-16.066,2.84-2.061,11.89.951,24.392.981,24.518a.3.3,0,0,1-.288.367Z" transform="translate(-616.718 -1236.684)" fill="#28513f"/></g><g transform="translate(48.084 15.16)"><path d="M669.242,1291a.3.3,0,0,1-.294-.26c-.061-.492-1.448-12.126,1.936-19.184a.3.3,0,0,1,.2-.159c.088-.022,8.831-2.195,15.62-1.34a.3.3,0,0,1,.257.331.3.3,0,0,1-.331.257c-6.219-.784-14.139,1.025-15.267,1.294-3.232,6.919-1.837,18.611-1.823,18.728a.3.3,0,0,1-.258.33A.24.24,0,0,1,669.242,1291Z" transform="translate(-668.616 -1269.854)" fill="#28513f"/></g><g transform="translate(18.218 0.059)"><path d="M589.626,1251.352a.3.3,0,0,1-.284-.212c-.146-.491-3.535-12.108.758-19.113a.3.3,0,0,1,.164-.128c.081-.025,8.077-2.53,12.929-2.839a.289.289,0,0,1,.315.277.3.3,0,0,1-.277.315c-4.479.285-11.721,2.483-12.684,2.78-4.065,6.792-.673,18.422-.637,18.539a.3.3,0,0,1-.2.369A.3.3,0,0,1,589.626,1251.352Z" transform="translate(-587.934 -1229.059)" fill="#28513f"/></g></g><g transform="translate(25.509 162.582)"><g transform="translate(1.134 2.589)"><path d="M471.732,1372.823l8.054-9.163,8.056,9.163,8.052-9.163,8.06,9.165,8.064-9.162,2.579,2.931q.893-4.744,1.786-9.487.754-4,1.507-8H451.9q1.085,5.93,2.17,11.861l2.064,11.284,7.548-8.587Z" transform="translate(-451.895 -1349.103)" fill="#fff2e6"/><g transform="translate(8.893 43.508)"><path d="M512.619,1466.64l-8.053,9.163-8.055-9.163-8.055,9.163-8.053-9.163-4.484,5.1c.693,3.793,1.361,7.59,1.931,11.407.208,1.391.414,3.3,1.608,4.207,1.824,1.391,5.39,1.759,7.612,2.24a64.239,64.239,0,0,0,8.643,1.264,58.951,58.951,0,0,0,18.245-1.267c2.833-.681,6.533-1.2,7.522-4.416a84.96,84.96,0,0,0,1.88-9.759c.2-1.11.391-2.222.586-3.334l-3.271,3.717Z" transform="translate(-475.919 -1466.64)" fill="#fff2e6"/></g><g transform="translate(5.286 21.495)"><path d="M482.319,1431.408l8.055-9.163,8.055,9.163,8.05-9.163,8.061,9.164,4.809-5.463c.3-1.715.6-3.431.921-5.142q1.123-5.962,2.245-11.925l-1.5-1.708-8.067,9.164-8.056-9.161-8.052,9.163-8.056-9.163-8.054,9.163-8.055-9.163-6.5,7.392q.7,3.836,1.4,7.673c.371,2.106.757,4.209,1.146,6.311l5.541-6.3Z" transform="translate(-466.175 -1407.171)" fill="#47354b"/></g><g transform="translate(4.235 14.557)"><path d="M478.937,1404.533l8.054-9.163,8.056,9.163,8.052-9.163,8.056,9.161,8.067-9.164,1.5,1.708q.538-2.856,1.076-5.713l-2.579-2.931-8.064,9.162-8.06-9.164-8.052,9.163-8.056-9.163-8.054,9.163-8.055-9.163-7.548,8.587q.525,2.872,1.051,5.745l6.5-7.392Z" transform="translate(-463.335 -1388.43)" fill="#687683"/></g><g transform="translate(7.836 36.569)"><path d="M518.878,1457.058l-8.061-9.164-8.05,9.163-8.055-9.163-8.055,9.163-8.053-9.163-5.541,6.3q.53,2.869,1.057,5.738l4.484-5.1,8.053,9.163,8.055-9.163,8.055,9.163,8.053-9.163,8.058,9.161,3.271-3.717q.765-4.343,1.538-8.683Z" transform="translate(-473.063 -1447.894)" fill="#687683"/></g></g><rect width="68.324" height="4.781" rx="2.39" fill="#687683"/></g><g transform="translate(0 128.117)"><path d="M438.919,1251.522s-10.426-6.334-31.247,1.063-31.382,21.879-26.627,32.624c4.432,10.015,28.008,4.039,38.952-2.219S440.872,1260.78,438.919,1251.522Z" transform="translate(-379.918 -1248.998)" fill="#2b6c47"/><g transform="translate(1.542 0.808)"><path d="M384.972,1289.46a.889.889,0,0,1-.741-1.38,119.3,119.3,0,0,1,17.2-19.663c13.878-12.637,28.015-18.517,40.881-17.005a.889.889,0,1,1-.207,1.767c-29.936-3.514-56.134,35.489-56.394,35.883A.889.889,0,0,1,384.972,1289.46Z" transform="translate(-384.083 -1251.18)" fill="#28513f"/></g><g transform="translate(0.816 23.716)"><path d="M397.987,1331.022a.3.3,0,0,1-.25-.137c-.04-.063-3.909-6.285-3.122-17.148-3.18.674-11.668,2.317-12.458.833a.3.3,0,0,1,.524-.28c.419.788,6.659-.018,12.2-1.216a.3.3,0,0,1,.358.314c-.9,10.911,2.961,17.116,3,17.178a.3.3,0,0,1-.25.456Z" transform="translate(-382.122 -1313.068)" fill="#28513f"/></g><g transform="translate(10.356 12.56)"><path d="M426.809,1309.321a.3.3,0,0,1-.2-.076c-7.3-6.582-7.653-20.271-7.661-22.52-7.479.22-10.83-3.147-10.972-3.292a.3.3,0,0,1,.426-.413c.034.034,3.435,3.428,10.83,3.1a.276.276,0,0,1,.221.084.3.3,0,0,1,.089.219c0,.153-.257,15.414,7.465,22.38a.3.3,0,0,1-.2.516Z" transform="translate(-407.894 -1282.93)" fill="#28513f"/></g><g transform="translate(21.06 5.931)"><path d="M455.83,1293.379a.3.3,0,0,1-.251-.139c-5.578-8.939-6.583-23.094-6.714-25.454-5.795.914-11.644-2.076-11.894-2.206a.3.3,0,0,1,.273-.526c.061.031,6.15,3.141,11.847,2.092a.294.294,0,0,1,.24.061.3.3,0,0,1,.111.22c.006.158.655,15.907,6.64,25.5a.3.3,0,0,1-.094.408A.293.293,0,0,1,455.83,1293.379Z" transform="translate(-436.811 -1265.02)" fill="#28513f"/></g><g transform="translate(36.849 0.675)"><path d="M493.785,1274.455a.3.3,0,0,1-.183-.063c-6.182-4.847-5.681-18.323-5.53-20.83-5.593.934-8.408-2.114-8.527-2.247a.3.3,0,0,1,.44-.4c.027.031,2.857,3.062,8.352,1.994a.3.3,0,0,1,.352.314c-.012.156-1.154,15.656,5.28,20.7a.3.3,0,0,1-.183.53Z" transform="translate(-479.468 -1250.821)" fill="#28513f"/></g></g></g><g transform="translate(857.09 504.033)"><path d="M1682.608,911.748l-4.469-.261-4.469-.26c-.664-.039-1.245.648-1.3,1.534l-3.365,57.755a1.45,1.45,0,0,0,1.11,1.674l4.469.26,4.469.26c.664.039,1.246-.648,1.3-1.534l3.365-57.755A1.45,1.45,0,0,0,1682.608,911.748Z" transform="translate(-1669.005 -911.226)" fill="#ff91a2"/><g transform="translate(2.62 10.703)"><path d="M1681.97,940.47l-5.673-.331-.213,3.667,5.673.331,5.672.33.214-3.667Z" transform="translate(-1676.084 -940.139)" fill="#f7f4f6"/><path d="M1683.814,983.932c-1.392-.081-2.868,5.826-3.3,13.194s.351,13.407,1.743,13.488,2.868-5.826,3.3-13.194S1685.206,984.013,1683.814,983.932Z" transform="translate(-1678.802 -967.721)" fill="#f7f4f6"/></g></g><g transform="translate(838.759 514.511)"><path d="M1638.637,940.8l-6.319-.628-6.319-.628a1.551,1.551,0,0,0-1.832,1.139l-4.677,47.062c-.072.721.632,1.383,1.571,1.476l6.319.628,6.32.628a1.552,1.552,0,0,0,1.831-1.138l4.677-47.062C1640.28,941.555,1639.577,940.893,1638.637,940.8Z" transform="translate(-1619.484 -939.533)" fill="#ff7362"/><g transform="translate(3.531 5.653)"><path d="M1638.6,955.6l-8.021-.8-.2,2.056,8.021.8,8.021.8.2-2.056Z" transform="translate(-1629.873 -954.805)" fill="#ffcc83"/><path d="M1629.227,968.383l-.2,2.056,8.021.8,8.021.8.2-2.056-8.02-.8Z" transform="translate(-1629.023 -963.357)" fill="#ffcc83"/></g><path d="M1642.494,990.115l-1.572-.156-1.479-.147a.709.709,0,0,0-.775.634l-2.663,26.8a.707.707,0,0,0,.634.774l1.523.151,1.529.152a.707.707,0,0,0,.774-.634l2.664-26.8A.708.708,0,0,0,1642.494,990.115Z" transform="translate(-1629.887 -971.198)" fill="#ffcc83"/></g><g transform="translate(822.984 427.875)"><g transform="translate(0 0)"><rect width="16.569" height="57.328" fill="#687683"/><circle cx="4.069" cy="4.069" r="4.069" transform="translate(3.995 41.592)" fill="#514455" stroke="#f7f4ec" stroke-miterlimit="10" stroke-width="1"/></g><rect width="9.178" height="31.313" transform="translate(3.995 4.751)" fill="#eee"/></g><g transform="translate(841.659 427.335)"><g transform="translate(0 0)"><rect width="16.569" height="57.328" fill="#8394be"/><circle cx="4.069" cy="4.069" r="4.069" transform="translate(3.995 41.592)" fill="#514455" stroke="#f7f4ec" stroke-miterlimit="10" stroke-width="1"/></g><rect width="9.178" height="31.313" transform="translate(4.165 5.291)" fill="#eee"/></g><g transform="translate(787.162 264.722)"><g transform="translate(55.635 74.32)"><g transform="translate(0.995 2.271)"><path d="M1650.481,492.439l7.063-8.037,7.067,8.037,7.062-8.037,7.069,8.038,7.072-8.036,2.262,2.57q.784-4.16,1.567-8.321.661-3.51,1.322-7.019h-57.883l1.9,10.4q.905,4.948,1.811,9.9l6.62-7.531Z" transform="translate(-1633.082 -471.634)" fill="#fff2e6"/><g transform="translate(7.8 38.16)"><path d="M1686.342,574.724l-7.063,8.037-7.065-8.037-7.065,8.037-7.063-8.037-3.933,4.474c.608,3.327,1.194,6.657,1.694,10,.182,1.22.363,2.892,1.41,3.69,1.6,1.219,4.728,1.543,6.677,1.965a56.5,56.5,0,0,0,7.58,1.108,51.7,51.7,0,0,0,16-1.111c2.484-.6,5.73-1.051,6.6-3.873a74.472,74.472,0,0,0,1.649-8.559c.177-.974.343-1.949.514-2.924l-2.868,3.26Z" transform="translate(-1654.153 -574.724)" fill="#fff2e6"/></g><g transform="translate(4.636 18.852)"><path d="M1659.767,543.822l7.065-8.037,7.065,8.037,7.061-8.037,7.07,8.038,4.217-4.792c.266-1.5.525-3.009.807-4.51l1.969-10.459-1.319-1.5-7.075,8.037-7.066-8.035L1672.5,530.6l-7.066-8.037-7.063,8.037-7.065-8.037-5.7,6.483q.615,3.365,1.231,6.73.488,2.771,1,5.535l4.86-5.529Z" transform="translate(-1645.607 -522.564)" fill="#fff2e6"/></g><g transform="translate(3.714 12.768)"><path d="M1656.8,520.25l7.063-8.037,7.066,8.037,7.062-8.037,7.066,8.035,7.075-8.037,1.318,1.5q.472-2.506.943-5.011l-2.262-2.57-7.072,8.036-7.069-8.038-7.062,8.037-7.066-8.037-7.063,8.037-7.064-8.037-6.62,7.531q.461,2.52.922,5.039l5.7-6.483Z" transform="translate(-1643.116 -506.127)" fill="#687683"/></g><g transform="translate(6.872 32.074)"><path d="M1691.832,566.32l-7.07-8.038-7.061,8.037-7.065-8.037-7.065,8.037-7.063-8.037-4.86,5.529q.465,2.516.927,5.032l3.933-4.475,7.063,8.037,7.065-8.037,7.065,8.037,7.063-8.037,7.068,8.035,2.868-3.26q.671-3.809,1.349-7.616Z" transform="translate(-1651.648 -558.282)" fill="#687683"/></g></g><rect width="59.926" height="4.193" rx="2.097" fill="#687683"/></g><g transform="translate(71.387 56.581)"><path d="M1716.895,489.457a20.381,20.381,0,0,1-17.167-8.866c-2.629-3.719-4.331-7.979-5.977-12.1-2.367-5.924-5.049-12.639-5.247-19.524a59.336,59.336,0,0,1,.921-10.328c.742-5,1.443-9.725.354-14.425-.815-3.513-2.005-5.374-3.539-5.529-3.736-.378-9.527,9.038-12.291,15.063l-1-.459c.305-.666,7.525-16.285,13.4-15.7,2.054.208,3.568,2.354,4.5,6.375,1.137,4.9.387,9.953-.337,14.835a58.469,58.469,0,0,0-.91,10.135c.192,6.69,2.722,13.023,5.169,19.147,1.622,4.06,3.3,8.257,5.853,11.871a19.542,19.542,0,0,0,18.5,8.3l.1,1.1Q1718.042,489.457,1716.895,489.457Z" transform="translate(-1672.948 -417.576)" fill="#4a8e5e"/></g><g transform="translate(100.923 65.679)"><path d="M1814.729,498.671c-3.989,0-7.206-2.227-10.111-6.881-3.532-5.658-6.472-14.69-10.194-26.124q-1.148-3.526-2.411-7.362c-2.328-7.029-6.292-11.651-11.781-13.739-11.752-4.469-26.792,4.1-26.942,4.185l-.551-.952c.632-.366,15.637-8.915,27.88-4.263,5.816,2.21,10,7.063,12.438,14.422q1.27,3.836,2.413,7.367c7.4,22.734,11.474,35.256,23.095,31.591l.331,1.049A13.871,13.871,0,0,1,1814.729,498.671Z" transform="translate(-1752.739 -442.154)" fill="#4a8e5e"/></g><g transform="translate(89.033 70.689)"><path d="M1767.414,512.753c-3.865,0-9.076-.685-12.816-3.793-3.051-2.535-4.6-6.269-4.6-11.1,0-18.835-4.006-31.422-11.907-37.412a18.22,18.22,0,0,0-14.789-3.22l-.06.013c-.037.008-1.11.239-1.563,1.922l-1.063-.286a3.432,3.432,0,0,1,2.406-2.713,19,19,0,0,1,15.715,3.394c8.2,6.2,12.36,19.09,12.36,38.3,0,4.485,1.413,7.933,4.2,10.248,6.143,5.107,17.042,3.158,17.152,3.138l.2,1.082A31.047,31.047,0,0,1,1767.414,512.753Z" transform="translate(-1720.62 -455.689)" fill="#4a8e5e"/></g><g transform="translate(100.453 72.244)"><path d="M1751.655,459.89s-1.289,12.713,2.931,13.394S1756.16,461.987,1751.655,459.89Z" transform="translate(-1751.469 -459.89)" fill="#488e53"/></g><g transform="translate(128.008 64.297)"><path d="M1825.911,441.691s11.224,3.154,11.545-1.523S1825.911,441.691,1825.911,441.691Z" transform="translate(-1825.911 -438.422)" fill="#9cc184"/></g><g transform="translate(141.074 84.107)"><path d="M1861.209,491.938s11.722,15.648,16.919,9.75S1861.209,491.938,1861.209,491.938Z" transform="translate(-1861.209 -491.938)" fill="#9cc184"/></g><g transform="translate(108.611 82.498)"><path d="M1778.224,487.592s-9.145,14.317-1.96,17.362S1778.224,487.592,1778.224,487.592Z" transform="translate(-1773.51 -487.592)" fill="#9cc184"/></g><g transform="translate(164.141 116.168)"><path d="M1923.523,583.734s18.72,5.641,19.4-2.191S1923.523,583.734,1923.523,583.734Z" transform="translate(-1923.523 -578.552)" fill="#9cc184"/></g><g transform="translate(130.372 76.232)"><path d="M1840.046,470.746c-.172-1.223-11.5,11.668-6.451,13.737S1840.591,474.61,1840.046,470.746Z" transform="translate(-1832.298 -470.665)" fill="#488e53"/></g><g transform="translate(144.089 95.562)"><path d="M1870.549,522.917c-.868-.915-3.1,16.946,2.331,15.672S1873.292,525.807,1870.549,522.917Z" transform="translate(-1869.353 -522.883)" fill="#488e53"/></g><g transform="translate(86.485 95.247)"><path d="M1715.61,522.032s-4.209,17.395-.01,16.815S1718.944,530.283,1715.61,522.032Z" transform="translate(-1713.736 -522.032)" fill="#6b9b64"/></g><g transform="translate(138.998 126.25)"><path d="M1855.6,606.162s11.981,9.3,14.012,5.576S1862.895,604.638,1855.6,606.162Z" transform="translate(-1855.601 -605.788)" fill="#488e53"/></g><g transform="translate(152.628 114.8)"><path d="M1892.423,574.855s5.838,11.9,7.956,9.585S1898.229,577.978,1892.423,574.855Z" transform="translate(-1892.423 -574.855)" fill="#488e53"/></g><g transform="translate(86.982 88.312)"><path d="M1715.077,503.3s7.89,10.655,9.555,7.992S1721.352,505.322,1715.077,503.3Z" transform="translate(-1715.077 -503.299)" fill="#488e53"/></g><g transform="translate(49.425 70.707)"><g transform="translate(10.363)"><path d="M1642.648,540.91l-1.035-.374a88.986,88.986,0,0,0,3.408-36.93c-3.63-29.784,1.721-41.024,6.85-45.208a11.434,11.434,0,0,1,10.393-2.244l.077.032c.449.231,2.689,1.458,2.689,2.956h-1.1c0-.6-1.21-1.514-2.052-1.957a10.348,10.348,0,0,0-9.329,2.079c-4.9,4.017-10,14.948-6.436,44.208A90.145,90.145,0,0,1,1642.648,540.91Z" transform="translate(-1641.613 -455.737)" fill="#4a8e5e"/></g><g transform="translate(0 58.593)"><path d="M1628.492,614.028s-15.7,3.5-14.841,8.811S1627.772,620.243,1628.492,614.028Z" transform="translate(-1613.616 -614.028)" fill="#488e53"/></g><g transform="translate(13.911 45.281)"><path d="M1651.2,578.065s.73,17.065,7.387,15.377S1651.2,578.065,1651.2,578.065Z" transform="translate(-1651.196 -578.065)" fill="#9cc184"/></g><g transform="translate(0.836 35.014)"><path d="M1628.217,550.454c.191-1.405-16.36,9.3-11.421,13.169S1627.613,554.9,1628.217,550.454Z" transform="translate(-1615.876 -550.328)" fill="#488e53"/></g><g transform="translate(13.162 26.439)"><path d="M1649.18,527.163s12.305,7.61,9.506,11.4S1648.928,531,1649.18,527.163Z" transform="translate(-1649.173 -527.163)" fill="#6b9b64"/></g><g transform="translate(3.423 12.963)"><path d="M1634.315,490.756s-13.873,7.209-11.082,9.643S1630.793,497.687,1634.315,490.756Z" transform="translate(-1622.862 -490.756)" fill="#6b9b64"/></g><g transform="translate(13.84 70.626)"><path d="M1651,646.534s4.959,14.827,7.8,12.449S1657.3,651.093,1651,646.534Z" transform="translate(-1651.004 -646.534)" fill="#488e53"/></g><g transform="translate(16.993 5.748)"><path d="M1661.2,471.264s-3.339,11.09-.6,10.865S1663.064,476.714,1661.2,471.264Z" transform="translate(-1659.523 -471.264)" fill="#488e53"/></g><g transform="translate(6.284 79.04)"><path d="M1636.859,669.266s-9.636,9.868-5.008,11.972S1636.536,673.623,1636.859,669.266Z" transform="translate(-1630.594 -669.266)" fill="#6b9b64"/></g></g><g transform="translate(150.788 109.661)"><path d="M1887.451,560.984s12.012,10.245,14.058,4.8S1892.452,561.017,1887.451,560.984Z" transform="translate(-1887.451 -560.972)" fill="#6b9b64"/></g><g transform="translate(117.011 93.357)"><path d="M1796.2,516.926s10.187,1.762,8.344,7.534S1796.2,516.926,1796.2,516.926Z" transform="translate(-1796.203 -516.926)" fill="#9cc184"/></g><g transform="translate(113.205 111.334)"><path d="M1791.537,565.493s-8.727,11.431-4.425,12.537S1791.537,565.493,1791.537,565.493Z" transform="translate(-1785.92 -565.493)" fill="#9cc184"/></g><g transform="translate(121.548 118.76)"><path d="M1808.459,588.429s9.583-4.917,9.83-1.894S1811.658,589.759,1808.459,588.429Z" transform="translate(-1808.459 -585.553)" fill="#9cc184"/></g><g transform="translate(127.982 126.625)"><path d="M1825.866,606.8s-.551,12.239,3.376,11.073S1825.866,606.8,1825.866,606.8Z" transform="translate(-1825.84 -606.8)" fill="#9cc184"/></g><g transform="translate(80.331 70.896)"><path d="M1706.344,456.247c-.714,0-11.658,7.733-8.74,12.4S1706.344,456.247,1706.344,456.247Z" transform="translate(-1697.11 -456.247)" fill="#488e53"/></g><g transform="translate(92.924 107.202)"><path d="M1731.131,554.981s7.356-2.325,8.216,1.807S1731.131,554.981,1731.131,554.981Z" transform="translate(-1731.131 -554.33)" fill="#9cc184"/></g><g transform="translate(94.14 117.635)"><path d="M1737.808,582.514s-5.779,11.03-2.253,11.153S1737.808,582.514,1737.808,582.514Z" transform="translate(-1734.415 -582.514)" fill="#9cc184"/></g><g transform="translate(103.072 122.42)"><path d="M1758.546,596.956s4.46-2.858,6.058-.723S1761.584,598,1758.546,596.956Z" transform="translate(-1758.546 -595.441)" fill="#488e53"/></g><g transform="translate(109.69 127.191)"><path d="M1776.424,608.329s.546,7.866,4.48,6.882S1776.424,608.329,1776.424,608.329Z" transform="translate(-1776.424 -608.329)" fill="#6b9b64"/></g><g transform="translate(116.131 125.547)"><path d="M1793.825,606.24s3.931-4.3,5.164-1.274S1795.909,607.44,1793.825,606.24Z" transform="translate(-1793.825 -603.888)" fill="#9cc184"/></g><g transform="translate(0 56.072)"><g transform="translate(10.904 6.983)"><path d="M1509.778,517.3l-.226-1.076a42.056,42.056,0,0,0,7.616-2.483,48.755,48.755,0,0,0,7.346-3.826l.534-.339a19.779,19.779,0,0,0,5.056-4.022c2.031-2.626,2.008-6.668,1.989-9.917v-.142c-.016-2.769-.195-5.522-.459-8.8-.164-2.044-.354-4.091-.542-6.14-.7-7.576-1.421-15.41-.883-23.134.764-10.942,4.25-17.462,10.659-19.935,7.571-2.92,14.074-3.19,19.332-.8a16.9,16.9,0,0,1,8.562,8.8l-1.034.378a16.084,16.084,0,0,0-8-8.181c-4.975-2.252-11.187-1.972-18.463.835-5.97,2.3-9.227,8.513-9.957,18.985-.532,7.635.186,15.424.88,22.957.189,2.054.379,4.105.544,6.153.266,3.307.447,6.084.463,8.887v.142c.019,3.417.044,7.671-2.219,10.6a20.546,20.546,0,0,1-5.337,4.278l-.532.338a49.812,49.812,0,0,1-7.511,3.913A43.04,43.04,0,0,1,1509.778,517.3Z" transform="translate(-1509.552 -435.068)" fill="#4a8e5e"/></g><g transform="translate(37.397 7.538)"><path d="M1593.152,436.566s-16.909,12.43-10.628,18.066S1593.152,436.566,1593.152,436.566Z" transform="translate(-1581.125 -436.566)" fill="#9cc184"/></g><g transform="translate(49.259)"><path d="M1623.393,424.593s-13.636-6.861-9.414-8.048S1622.911,417.072,1623.393,424.593Z" transform="translate(-1613.168 -416.202)" fill="#6b9b64"/></g><g transform="translate(55.945 13.454)"><path d="M1641.717,452.548s-13.062,1.175-10.027,4.125S1641.717,452.548,1641.717,452.548Z" transform="translate(-1631.232 -452.548)" fill="#9cc184"/></g><g transform="translate(0 87.542)"><path d="M1494.94,652.87s-19.067-1.333-13.983,3.444S1494.94,652.87,1494.94,652.87Z" transform="translate(-1480.095 -652.699)" fill="#488e53"/></g><g transform="translate(15.795 83.745)"><path d="M1530.037,642.441s-9.942,9.532-6.575,11.463S1530.037,642.441,1530.037,642.441Z" transform="translate(-1522.766 -642.441)" fill="#9cc184"/></g><g transform="translate(15.564 80.101)"><path d="M1533,634.211s-11.874-3.444-10.786-.272S1533,634.211,1533,634.211Z" transform="translate(-1522.141 -632.596)" fill="#9cc184"/></g><g transform="translate(29.907 78.442)"><path d="M1562.826,628.114s-4.36,9.209,0,9.994S1562.826,628.114,1562.826,628.114Z" transform="translate(-1560.888 -628.114)" fill="#9cc184"/></g><g transform="translate(25.848 64.633)"><path d="M1558,590.809s-10.961,7.557-7.341,9.568S1558.292,595.851,1558,590.809Z" transform="translate(-1549.922 -590.809)" fill="#9cc184"/></g><g transform="translate(33.281 55.582)"><path d="M1570,566.358s5.574,13.971,7.025,11.707S1576.371,569.78,1570,566.358Z" transform="translate(-1570.004 -566.358)" fill="#488e53"/></g><g transform="translate(21.482 40.462)"><path d="M1548.507,525.51s-15.3,11.814-8.746,13.534S1548.507,525.51,1548.507,525.51Z" transform="translate(-1538.129 -525.51)" fill="#6b9b64"/></g><g transform="translate(32.133 27.857)"><path d="M1566.9,491.458s12.363,10.612,8.174,12.164S1566.9,491.458,1566.9,491.458Z" transform="translate(-1566.902 -491.458)" fill="#9cc184"/></g><g transform="translate(18.208 15.876)"><path d="M1546.21,459.092s-20.678,4.935-16.324,8.686S1546.21,459.092,1546.21,459.092Z" transform="translate(-1529.284 -459.092)" fill="#488e53"/></g></g><g transform="translate(63.283)"><g transform="translate(7.066 10.143)"><path d="M1696.129,356.516l-1.07-.257c.173-.725,4.05-17.848-13.049-26.47-17.9-9.026-10.257-37.382-10.178-37.667l1.061.295c-.077.276-7.484,27.77,9.612,36.39C1700.395,337.827,1696.173,356.331,1696.129,356.516Z" transform="translate(-1670.143 -292.123)" fill="#4a8e5e"/></g><g transform="translate(8.376)"><path d="M1673.683,278.52s-.168-14.447,4.032-13.775S1678.051,273.648,1673.683,278.52Z" transform="translate(-1673.682 -264.722)" fill="#6b9b64"/></g><g transform="translate(7.47 16.534)"><path d="M1672.622,318.537s4.976-11.134,8.143-7.772S1674.205,317.971,1672.622,318.537Z" transform="translate(-1672.108 -309.857)" fill="#488e53"/><path d="M1671.234,318.544l.263-.588c.146-.327,3.613-8.012,6.725-8.538a2.006,2.006,0,0,1,1.868.689,2.205,2.205,0,0,1,.643,2.109c-.764,3.174-8.562,5.993-8.894,6.111Zm7.331-8.606a1.482,1.482,0,0,0-.252.022c-2.349.4-5.136,5.769-6.026,7.608,1.879-.741,7.334-3.083,7.911-5.481a1.665,1.665,0,0,0-.509-1.6A1.518,1.518,0,0,0,1678.566,309.939Z" transform="translate(-1671.234 -309.389)" fill="#4a8e5e"/></g><g transform="translate(0 18.202)"><path d="M1659.135,327.417s-11.278-9.822-7.186-13.091S1659.135,327.417,1659.135,327.417Z" transform="translate(-1651.054 -313.894)" fill="#9cc184"/></g><g transform="translate(0.314 32.92)"><path d="M1662.764,362.31s-12.942-5.206-9.553-7.553S1662.764,362.31,1662.764,362.31Z" transform="translate(-1652.371 -354.122)" fill="#488e53"/><path d="M1662.976,362.412l-.781-.314c-1.021-.411-9.986-4.09-10.283-6.746a1.34,1.34,0,0,1,.676-1.288,2.373,2.373,0,0,1,1.9-.346c3.493.723,7.862,7.684,8.047,7.98ZM1653.9,354.2a1.712,1.712,0,0,0-1,.311c-.44.3-.463.588-.443.775.2,1.8,6.042,4.641,9.119,5.954-1.237-1.83-4.582-6.447-7.2-6.99A2.343,2.343,0,0,0,1653.9,354.2Z" transform="translate(-1651.903 -353.656)" fill="#4a8e5e"/></g><g transform="translate(12.524 31.418)"><path d="M1685.836,361.064s-2.7-11.775,1.012-11.459S1685.836,361.064,1685.836,361.064Z" transform="translate(-1684.888 -349.598)" fill="#9cc184"/></g><g transform="translate(5.093 44.695)"><path d="M1679.366,388.986s-16.826-7.286-14.294-.892S1679.366,388.986,1679.366,388.986Z" transform="translate(-1664.813 -385.466)" fill="#6b9b64"/></g><g transform="translate(21.392 41.458)"><path d="M1714.245,388.708s-8.4-9.451-2.653-11.1S1714.245,388.708,1714.245,388.708Z" transform="translate(-1709.309 -377.188)" fill="#488e53"/><path d="M1713.923,388.815l-.349-.393c-.228-.257-5.583-6.335-4.613-9.677a2.762,2.762,0,0,1,2.089-1.867,2.549,2.549,0,0,1,2.626.462c2.429,2.33.455,10.613.37,10.965Zm-1.844-11.547a3.213,3.213,0,0,0-.877.138,2.221,2.221,0,0,0-1.712,1.492c-.751,2.585,2.956,7.317,4.141,8.742.4-1.872,1.539-8.107-.335-9.9A1.683,1.683,0,0,0,1712.079,377.268Z" transform="translate(-1708.844 -376.72)" fill="#4a8e5e"/></g><g transform="translate(15.558 52.118)"><path d="M1707.961,409.937s-14.223-7.61-14.857-2.854S1707.961,409.937,1707.961,409.937Z" transform="translate(-1693.085 -405.519)" fill="#9cc184"/></g></g><g transform="translate(97.722 1.158)"><g transform="translate(0.69 8.614)"><path d="M1746.769,355.582c-.21-1.23-4.951-30.2,11.148-37.065,15.246-6.5,8.872-26.853,8.807-27.058l1.047-.338c.069.214,6.738,21.516-9.421,28.409-15.308,6.53-10.546,35.576-10.5,35.868Z" transform="translate(-1745.958 -291.12)" fill="#4a8e5e"/></g><g transform="translate(17.407)"><path d="M1796.556,282.437s-8.763-12.119-4.038-14.377S1796.556,282.437,1796.556,282.437Z" transform="translate(-1791.12 -267.849)" fill="#9cc184"/></g><g transform="translate(21.206 21.826)"><path d="M1801.381,332.93s17.286-.451,12.581-4.914S1801.381,332.93,1801.381,332.93Z" transform="translate(-1801.381 -326.811)" fill="#6b9b64"/></g><g transform="translate(0 34.796)"><path d="M1747.6,374.025s2.957-14.9-1.778-11.732S1747.6,374.025,1747.6,374.025Z" transform="translate(-1744.094 -361.851)" fill="#6b9b64"/></g><g transform="translate(6.558 33.61)"><path d="M1761.811,366.331s13.825-2.747,11.251-6.782S1761.811,366.331,1761.811,366.331Z" transform="translate(-1761.811 -358.648)" fill="#9cc184"/></g><g transform="translate(0.998 47.836)"><path d="M1747.53,409.951c-.056-.713,1.151-13.528,5.091-12S1747.53,409.951,1747.53,409.951Z" transform="translate(-1747.255 -397.548)" fill="#488e53"/><path d="M1746.842,410.161l-.052-.658c-.038-.475.72-9.905,3.543-12.006a1.9,1.9,0,0,1,1.921-.274,1.7,1.7,0,0,1,1.1,1.223c.8,3.187-5.8,10.888-6.083,11.215Zm4.676-12.532a1.416,1.416,0,0,0-.856.309c-2.108,1.569-3.087,8.357-3.287,10.74,1.559-1.907,6.053-7.673,5.447-10.1a1.164,1.164,0,0,0-.767-.843A1.481,1.481,0,0,0,1751.519,397.629Z" transform="translate(-1746.789 -397.078)" fill="#4a8e5e"/></g><g transform="translate(16.07 20.519)"><path d="M1791.013,335.784c-.36-.539-5.086-11.2-1.3-11.741S1791.013,335.784,1791.013,335.784Z" transform="translate(-1787.977 -323.75)" fill="#488e53"/><path d="M1790.681,336.017l-.367-.549c-.24-.359-3.826-8.167-2.522-11.085a1.744,1.744,0,0,1,1.417-1.082,1.566,1.566,0,0,1,1.435.486c2.051,2.176.247,11.2.169,11.583Zm-1.2-12.186a1.4,1.4,0,0,0-.2.014,1.211,1.211,0,0,0-.992.762c-.957,2.141,1.215,7.824,2.13,9.854.524-2.958,1.219-8.812-.181-10.3A1,1,0,0,0,1789.482,323.831Z" transform="translate(-1787.507 -323.281)" fill="#4a8e5e"/></g></g></g><ellipse cx="15.828" cy="20.726" rx="15.828" ry="20.726" transform="translate(739.43 439.035)" fill="#fffbff"/><g transform="translate(486.094 347.781)"><g transform="translate(0 0)"><g transform="translate(276.041 308.687)"><path d="M1420.805,1376.667a1.481,1.481,0,0,1-1.466-1.283l-6.843-50.677a1.481,1.481,0,1,1,2.935-.4l6.843,50.677a1.48,1.48,0,0,1-1.269,1.665A1.461,1.461,0,0,1,1420.805,1376.667Z" transform="translate(-1412.484 -1323.029)" fill="#47354b"/></g><g transform="translate(277.297 317.99)"><path d="M1453.972,1353.876c-.037,0-.074,0-.112,0l-36.612-2.753a1.48,1.48,0,0,1,.222-2.952l36.612,2.753a1.481,1.481,0,0,1-.109,2.957Z" transform="translate(-1415.878 -1348.161)" fill="#47354b"/></g><g transform="translate(78.015 286.622)"><path d="M878.994,1334.625a1.481,1.481,0,0,1-1.481-1.481V1264.9a1.481,1.481,0,1,1,2.961,0v68.241A1.481,1.481,0,0,1,878.994,1334.625Z" transform="translate(-877.513 -1263.422)" fill="#47354b"/></g><g transform="translate(304.479 270.269)"><path d="M1509.649,1323.152a1.481,1.481,0,0,1-1.454-1.209L1489.336,1221a1.48,1.48,0,1,1,2.911-.543l18.86,100.946a1.481,1.481,0,0,1-1.184,1.728A1.516,1.516,0,0,1,1509.649,1323.152Z" transform="translate(-1489.31 -1219.244)" fill="#47354b"/></g><path d="M985.359,1131.256l3.024,56.636s161.1,19.332,164.557,16,23.323-48.25,23.323-48.25l-85.248-39.922Z" transform="translate(-867.424 -883.772)" fill="#b74247"/><path d="M1329.218,878.2l35.7,5.759-35.992,151.456-61.864-66.759Z" transform="translate(-1044.853 -734.17)" fill="#c35253"/><path d="M1459.031,893.745c-2.451-.5-20.025,37.005-21.987,41.026-7.307,14.969-13.77,30.508-17.551,46.774-3.62,15.571-3.666,30.485-1.763,46.259.3,2.446,3.063,39.145,8.638,36.277,5.6-2.88,67.792-141.542,67.792-147.877S1481.49,898.352,1459.031,893.745Z" transform="translate(-1138.962 -743.96)" fill="#d76468"/><path d="M869.43,1112.462l48.044,63.648,125.905-57.647S898.61,1097.489,869.43,1112.462Z" transform="translate(-794.407 -878.325)" fill="#d76468"/><path d="M1140.126,1207.991s-13.724-29.6-107.457-26.608l-59.756-23.694,12.957,57.271,159.231,15.366S1145.751,1214.412,1140.126,1207.991Z" transform="translate(-859.585 -910.205)" fill="#d76468"/><path d="M871.722,1188.5s-25.915-16.124-24.187-21.307.845-48.689,8.053-45.8,39.745,23.337,39.745,23.337l-15.261,45.207Z" transform="translate(-780.564 -887.261)" fill="#b74247"/><g transform="translate(112.568 277.87)"><path d="M972.339,1347.5a1.48,1.48,0,0,1-1.481-1.481v-96.115a1.481,1.481,0,0,1,1.568-1.478l166.04,9.759c1.533-.932,7.278-4.368,29.616-17.7l.842-.5a1.484,1.484,0,0,1,2.033.511,1.369,1.369,0,0,1-.532,2l.017.028a1.435,1.435,0,0,1-.191.1c-.209.143-.433.276-.65.406-18.5,11.04-29.4,17.554-29.955,17.9a1.475,1.475,0,0,1-.9.24l-164.926-9.693v94.545A1.481,1.481,0,0,1,972.339,1347.5Z" transform="translate(-970.858 -1239.777)" fill="#47354b"/></g><path d="M905.772,1416.974s.208,18.031-.686,28.665-23.573,27.489-23.573,27.489,25.208-5.42,37.733-16.657l9.057-48.416Z" transform="translate(-802.018 -1067.895)" fill="#ffa07a"/><path d="M937.859,1071.471s.208,18.031-.686,28.665-23.573,27.489-23.573,27.489,25.208-5.42,37.734-16.657l9.057-48.416Z" transform="translate(-822.227 -850.284)" fill="#ffa07a"/><path d="M1298.632,611.091s12.71,18.248,7.156,46.412l22.992-25.388s-10.314-15.218-15.074-32.8S1298.632,611.091,1298.632,611.091Z" transform="translate(-1064.735 -554.988)" fill="#dc9977"/><path d="M1221.48,535.414s-13.583,15.954-8.426,29.838-6.814,25.061,2.742,30.778,2.485,10.246,5.56,16.2,30.864,6,31.372-10.108S1232.686,536.208,1221.48,535.414Z" transform="translate(-1010.099 -518.273)" fill="#151344"/><path d="M1240.459,536.668s-7.716,11.878-.576,34.093,21.986,22.583,27.786,17.852c6.819-5.562,11.489-8.639,11.489-25.73S1258.707,525.561,1240.459,536.668Z" transform="translate(-1025.823 -517.06)" fill="#ffa07a"/><path d="M1292.462,691.207s8.657.658,10.74-3.629l22.815-20.111,6.479,26.406S1306.6,714.933,1292.462,691.207Z" transform="translate(-1060.849 -601.445)" fill="#dc9977"/><path d="M1032.063,984.885S954.958,931.91,935.6,940.1c-34.335,14.526-.869,53.453,5.649,61.275l23.4-2.669s-.652-1.443,0-9.264-10.041,12.066,17.883,22.474c10.507,3.916,90.6-27.031,90.6-27.031Z" transform="translate(-826.48 -772.617)" fill="#5776a7"/><path d="M1074.306,1090.886s-3.259,26.723-48.884,30.634-76.6-10.173-76.6-10.173,4.385,60.561-5.392,93.15l-22.091-.7s-19.528-111.622-7.747-124.657,92.051-5.854,92.051-5.854l60.845-10.736S1082.777,1075.843,1074.306,1090.886Z" transform="translate(-819.84 -850.284)" fill="#8194ca"/><path d="M1149.561,1013.005s1.195,18.38-26.883,30.353,13.445,23.2,13.445,23.2l54.289-11Z" transform="translate(-947.774 -819.078)" fill="#8194ca"/><path d="M1177.623,730.209s-21.855,4.02-37.144,52.045c-11.95,37.534-2.76,55.269-2.76,55.269s38.574,23.236,75.747,46.847c0,0,6.828-7.257,14.482-16.75,8.22-10.2,17.392-22.97,20.076-32.1,4.207-14.313,3.342-76.786-3.432-100.119-1.571-5.412-17.106-10.242-17.106-10.242s-22.654,14.672-29.132,2.3C1198.355,727.461,1185.832,727.047,1177.623,730.209Z" transform="translate(-961.26 -637.781)" fill="#fffbff"/><path d="M1243.065,1047.331s-55.231,6-86.643-5.856-16.3,14.254-16.3,14.254l39.347,3.79,35.344,22.135s10.024-11.423,13.218-15.3C1231.9,1061.649,1243.065,1047.331,1243.065,1047.331Z" transform="translate(-962.612 -835.063)" fill="#eae8e8"/><path d="M1266.571,1031.035s-23.931,1.836-33.927,7.1-10.78,6.624-10.03,7.21a1.762,1.762,0,0,0,1.735.225,8.56,8.56,0,0,0,2.542-1.379s-3.837,1.635-3.532,2.725,2.375,1.468,5.4-.978-3.093.713-2.121,2.416c.679,1.19,6.084-.839,13.841-4.3,0,0-7.084,2.2-7.158,5.343-.022.949,1.209,1.285,3.919-1.052,1.8-1.557,11.106-2.344,13.841-3.179,2.174-.664,5.135-2.764,8.572-3.806s17.4,2.167,17.4,2.167l.9-13.522Z" transform="translate(-1016.722 -829.783)" fill="#ffa682"/><path d="M1354.442,742.145c9.206-2.748,15.759,3.56,22.027,18.668,4.672,11.263,15.164,67.362,15.164,80.319s-3.031,27.956-70.846,22.7l.445-14.708s28.1-9.04,46-14.469c0,0-18.783-47.39-22.412-69.186C1342.317,750.434,1347.968,744.078,1354.442,742.145Z" transform="translate(-1078.689 -648.086)" fill="#fff"/><path d="M1197.547,841.439c-1.495,3.467-6.764,15.135-7.782,18.672a29.68,29.68,0,0,0-1.054,5.32c-.064.443-.045.878-.07,1.315-.018.412-.023.942-.034,1.422,0,.495-.048.972-.085,1.452s-.072.962-.133,1.434a88.015,88.015,0,0,1-2.117,11.158,97.209,97.209,0,0,1-3.333,10.815c.446-3.756,1.041-7.463,1.621-11.164s1.2-7.389,1.621-11.055c.064-.459.1-.914.14-1.369s.085-.913.1-1.358l.073-1.393a13.134,13.134,0,0,1,.131-1.492,25.372,25.372,0,0,1,1.49-5.633,40.56,40.56,0,0,1,2.436-5.178C1191.485,852.733,1196.38,842.933,1197.547,841.439Z" transform="translate(-991.867 -711.019)" fill="#d2c4c4"/><path d="M1218.866,1084.641l36.615,4.525a1.626,1.626,0,0,0,1.825-1.614v-2.115a1.626,1.626,0,0,0-1.408-1.611l-37.031-5Z" transform="translate(-1014.495 -860.534)" fill="#56434e"/><path d="M1312.986,1005.79c2.25-1.272,4.566-2.41,6.9-3.519,2.342-1.085,4.708-2.127,7.129-3.055.6-.242,1.214-.458,1.821-.688s1.233-.419,1.849-.63,1.251-.385,1.879-.575c.639-.163,1.28-.35,1.92-.492,2.561-.562,5.111-.938,7.635-1.381,2.527-.415,5.039-.845,7.484-1.426a29.272,29.272,0,0,0,3.572-1.055,11.6,11.6,0,0,0,3.114-1.663,5.047,5.047,0,0,0,.591-.569c.042-.051.088-.1.127-.154l.133-.177a2.057,2.057,0,0,1,.574-.537,3.183,3.183,0,0,1,1.2-.423,5.578,5.578,0,0,1,1.1-.058,13.684,13.684,0,0,1,3.955.844A16.825,16.825,0,0,1,1367.5,992a10.505,10.505,0,0,1,1.534,1.243,4.926,4.926,0,0,1,1.111,1.6,5.073,5.073,0,0,0-1.33-1.351,10.278,10.278,0,0,0-1.622-.965,17.435,17.435,0,0,0-3.544-1.26,12.75,12.75,0,0,0-3.626-.432,2.932,2.932,0,0,0-1.419.36.4.4,0,0,0-.115.129l-.142.218c-.051.08-.109.153-.165.23a6.661,6.661,0,0,1-.742.822,11.868,11.868,0,0,1-3.537,2.174,31.238,31.238,0,0,1-3.774,1.287,77.505,77.505,0,0,1-7.646,1.581c-2.548.4-5.092.771-7.57,1.245a67.868,67.868,0,0,0-7.326,1.961C1322.714,1002.4,1317.873,1004.129,1312.986,1005.79Z" transform="translate(-1073.775 -804.2)" fill="#d2c4c4"/><path d="M1406.248,883.4c-1.739-3.343-3.324-6.728-4.875-10.133s-3.023-6.842-4.415-10.319-2.691-7-3.841-10.572a74.6,74.6,0,0,1-2.743-10.94l4.381,10.334c1.447,3.44,2.877,6.885,4.265,10.353s2.728,6.961,3.969,10.5A111.872,111.872,0,0,1,1406.248,883.4Z" transform="translate(-1122.517 -711.019)" fill="#d2c4c4"/><g transform="translate(126.286 252.435)"><path d="M1009.539,1250.593c-.169-6.687-.1-13.349,0-20.006.107-6.656.276-13.305.438-19.947l.112-4.98.1-4.975c.055-3.315.087-6.63.027-9.925-.027-1.652-.1-3.282-.222-4.916s-.295-3.292-.494-4.935c-.178-1.647-.414-3.288-.67-4.929-.127-.821-.265-1.641-.418-2.459s-.307-1.638-.485-2.455a59,59,0,0,1,3.022,9.589c.368,1.638.7,3.287.991,4.944.081.411.134.837.2,1.257s.119.843.164,1.262l.143,1.26.112,1.259c.293,3.357.393,6.705.45,10.051.024,1.673.021,3.344.017,5.015q-.029,2.506-.081,5.01c-.168,6.676-.541,13.339-1.083,19.988C1011.283,1237.348,1010.6,1243.987,1009.539,1250.593Z" transform="translate(-1007.917 -1171.065)" fill="#5776a7"/></g><g transform="translate(106.891 159.237)"><path d="M989.218,953.978c14.4,3.08,23.035,11.142,40.887,14.6a73.321,73.321,0,0,0,22.977,1.076l-12.731-41.336a4.171,4.171,0,0,0-3.662-2.931l-78.229-6.091a1.989,1.989,0,0,0-1.719.749C959.655,924.849,976.141,951.181,989.218,953.978Z" transform="translate(-956.29 -919.288)" fill="#5f416a"/><path d="M1029.337,969.861c-17.852-3.455-26.49-11.518-40.888-14.6-13.077-2.8-29.563-29.129-32.477-33.935a1.99,1.99,0,0,0-.319,1.972l20.829,54.838a4.1,4.1,0,0,0,3.562,2.633l76.844,5.019-4.575-14.855A73.319,73.319,0,0,1,1029.337,969.861Z" transform="translate(-955.522 -920.573)" fill="#47354b"/></g><g transform="translate(188.321 166.001)"><path d="M1193.911,995.235a1.481,1.481,0,0,1-1.414-1.044l-16.924-54.71a1.48,1.48,0,1,1,2.829-.875l16.924,54.71a1.482,1.482,0,0,1-1.415,1.919Z" transform="translate(-1175.507 -937.562)" fill="#47354b"/></g><path d="M859.886,1566.417s42.587-20.4,50.424-14.041-30.8,24.36-41.7,21.135S859.886,1566.417,859.886,1566.417Z" transform="translate(-788.284 -1158.019)" fill="#c45651"/><path d="M929.216,1492.821a.765.765,0,0,1,1.012.884c-.741,3.39-3.013,12.318-.63,21,3.023,11.013-27.21,17.708-27.21,17.708l-9.332-13.168s16.356-10.9,16.995-17.39a39.969,39.969,0,0,1,1.484-6.945,1.464,1.464,0,0,1,1.969-.918,17.52,17.52,0,0,0,6.377.737A34.076,34.076,0,0,0,929.216,1492.821Z" transform="translate(-809.288 -1121.253)" fill="#fff"/><path d="M879.517,1555.439a31.147,31.147,0,0,1,5.551,14.118s-22.213,10.786-30.228,3.276c-5.508-5.162,5.655-18.986,17.167-21.9C874.984,1550.178,877.72,1552.948,879.517,1555.439Z" transform="translate(-784.305 -1157.805)" fill="#d76468"/><g transform="translate(0 365.473)"><path d="M676,1498.376s47.069-3.794,52.107,4.953-37.478,11.712-46.5,4.8S676,1498.376,676,1498.376Z" transform="translate(-672.181 -1489.74)" fill="#b74247"/><path d="M696.477,1483.483a31.152,31.152,0,0,1,.126,15.17s-24.6,2.114-29.4-7.769c-3.294-6.792,12.08-15.7,23.872-14.3C694.13,1476.947,695.692,1480.513,696.477,1483.483Z" transform="translate(-666.754 -1476.437)" fill="#d76468"/></g><path d="M1011.063,1197.324a14.429,14.429,0,0,0,4.511,9.663c3.267,3.049,7.146,3.655,11.415,3.839,15.25.654,25.293-7.419,27.531-12.372,1.867-4.131,3.146-9.693-9.186-7.479a103.113,103.113,0,0,1-17.859,1.15c-4.041.016-8.118-.092-12.152.168a4.89,4.89,0,0,0-2.956,1.023,4.232,4.232,0,0,0-1.282,2.9A10.962,10.962,0,0,0,1011.063,1197.324Z" transform="translate(-883.609 -930.853)" fill="#eee"/><path d="M1015.193,1167.934s47.4,11.717,51.11,10.615,2.082-19.242,2.082-19.242l-48.039-6.911Z" transform="translate(-886.214 -906.871)" fill="#8194ca"/><path d="M1015.186,1193.153s27.253,10.688,46.508,11.025c14.589.255,14.649-.166,14.649-.166s-14.293-4.553-23.683-3.581-17.191-4.849-20.732-5.9C1025.378,1192.587,1014.94,1191.709,1015.186,1193.153Z" transform="translate(-886.207 -932.09)" fill="#6c89be"/><path d="M1240.209,517s9.16,20.242,22.878,20.981c0,0,3.277,28.761,23.112,26.712,0,0,3.354,16.844,18.428,16.844s12.21-12.524,10.623-18.474c0,0,8.843-16.066-7.024-22.413s-10.034-18.446-17.571-29.553-21.384-26.1-35.665-20.941S1233.012,504.766,1240.209,517Z" transform="translate(-1026.212 -489.107)" fill="#201c47"/></g></g><g transform="translate(803.527 703.525)"><g transform="translate(8.41)"><path d="M1600.817,1475.059s26.51-36.663,69.919-21.018,19.122,51.279,7.9,56.537-56.23,9.931-73.012-6.134S1600.817,1475.059,1600.817,1475.059Z" transform="translate(-1578.297 -1450.156)" fill="#f7eade"/><path d="M1715.82,1573.514l14.312-2.344,17.452,11.638s-16.138,13.8-40.892,5.536C1706.692,1588.344,1709.394,1576,1715.82,1573.514Z" transform="translate(-1647.589 -1526.375)" fill="#e8d0bf"/><path d="M1557.287,1603.076s-14.347,6.266-9.118,9.3,22.25-7.645,22.25-7.645Z" transform="translate(-1547.023 -1546.471)" fill="#d4784b"/><g transform="translate(35.867 47.139)"><path d="M1675.765,1577.5s.776,12.522-2.622,15.552c-2.755,2.456-7.6,3.08-11.066,3.937-4.494,1.111-11.542,3.707-15.932,1.657-4.515-2.108-1.365-4.965,2.392-6.757a82.148,82.148,0,0,1,15.425-5.733Z" transform="translate(-1643.918 -1577.503)" fill="#f7eade"/></g><path d="M1784.882,1566.735c-7.448,4.337-11.939,0-21.8,2.913-3.864,1.142-6.574.618-8.468-.808,6.2,11.126,15.113,10.593,15.113,10.593s-19.712,6.45-17.3,9.931,5.763,3.783,15.291,1.168c12.1-3.322,20.99-17.373,22.723-30.126A22.9,22.9,0,0,1,1784.882,1566.735Z" transform="translate(-1676.265 -1519.595)" fill="#f7eade"/><path d="M1762.823,1538.622c9.858-2.913,14.349,1.424,21.8-2.913a22.9,22.9,0,0,0,5.559-6.329c.1-.7.175-1.407.226-2.1.661-8.95-8.007-15.509-16.091-16.785a16.249,16.249,0,0,0-11.389,2.2,11.682,11.682,0,0,0-1.51,1.206c-6.011,5.689-11.988,14.033-7.79,22.53.238.482.483.939.731,1.383C1756.248,1539.239,1758.959,1539.763,1762.823,1538.622Z" transform="translate(-1676.263 -1488.02)" fill="#d4784b"/><path d="M1674.853,1577.494a42.121,42.121,0,0,1,.133,8.9,19.181,19.181,0,0,1-.9,4.433,7,7,0,0,1-1.107,2.091,4.211,4.211,0,0,1-.425.46c-.15.139-.307.248-.461.372a8.961,8.961,0,0,1-.971.641c-2.723,1.5-5.727,1.849-8.6,2.457-2.885.58-5.665,1.6-8.559,2.294a22.914,22.914,0,0,1-4.439.7,10.2,10.2,0,0,1-4.556-.715,5.637,5.637,0,0,1-2-1.394,2.444,2.444,0,0,1-.567-1.294,2.513,2.513,0,0,1,.265-1.381,5.637,5.637,0,0,1,1.6-1.857,13.461,13.461,0,0,1,1.929-1.273c.672-.369,1.362-.674,2.033-.977s1.356-.6,2.041-.889c1.371-.569,2.752-1.111,4.154-1.6a58.531,58.531,0,0,1,8.565-2.364l.025.109c-2.811.892-5.565,1.94-8.274,3.078-1.357.564-2.7,1.159-4.034,1.769l-1.992.936c-.667.319-1.321.624-1.936.98a13.4,13.4,0,0,0-1.762,1.161,4.957,4.957,0,0,0-1.3,1.441,1.244,1.244,0,0,0,.119,1.464,4.649,4.649,0,0,0,1.585,1.135,9.9,9.9,0,0,0,4.094.782,25.872,25.872,0,0,0,4.331-.412c1.441-.261,2.881-.579,4.307-.954s2.855-.768,4.3-1.094,2.871-.689,4.262-1.141a16.792,16.792,0,0,0,3.933-1.76,8.009,8.009,0,0,0,.851-.611c.129-.112.27-.224.39-.335a3.268,3.268,0,0,0,.321-.355,6.9,6.9,0,0,0,.952-1.8,21.394,21.394,0,0,0,.974-4.2c.208-1.443.337-2.9.433-4.369s.155-2.939.183-4.415Z" transform="translate(-1607.083 -1530.358)" fill="#d4784b"/><path d="M1588.475,1511.552a25.354,25.354,0,0,1,4.861-2.09,25.983,25.983,0,0,1,5.217-1.046,19.063,19.063,0,0,1,5.354.233l1.321.286c.433.125.856.285,1.285.427l.641.219.612.291,1.223.587-.64.132a23.39,23.39,0,0,1,2.711-2.869,23.036,23.036,0,0,1,3.141-2.371,18.381,18.381,0,0,1,3.576-1.672,13.18,13.18,0,0,1,3.9-.614l.22,0,.041.206c.2,1.006.332,2,.439,3.011s.15,2.016.166,3.026a28.713,28.713,0,0,1-.134,3.03,19.837,19.837,0,0,1-.539,2.992l-.025-.162a28.751,28.751,0,0,1,1.839,3.468c.282.591.5,1.208.749,1.815.2.623.45,1.232.61,1.87a21.279,21.279,0,0,1,.863,7.835,16.333,16.333,0,0,1-2.553,7.532,15.764,15.764,0,0,1-6.087,5.158,24.96,24.96,0,0,1-3.689,1.5,35.438,35.438,0,0,1-3.845.938,42.965,42.965,0,0,1-7.838.628,49.651,49.651,0,0,1-7.8-.679,48.389,48.389,0,0,1-7.578-1.858l.031-.108a59.2,59.2,0,0,0,15.34,1.719q1.927-.047,3.841-.242,1.91-.214,3.792-.575a28.6,28.6,0,0,0,7.207-2.384,15.148,15.148,0,0,0,5.722-4.713,15.846,15.846,0,0,0,2.522-7.008,24.429,24.429,0,0,0-3.455-14.674l-.047-.08.022-.082a19.477,19.477,0,0,0,.568-2.924,21.133,21.133,0,0,0,.132-2.986,27.039,27.039,0,0,0-.77-5.916l.261.2a12.6,12.6,0,0,0-3.667.755,17.567,17.567,0,0,0-3.33,1.746,26.955,26.955,0,0,0-5.543,5.093l-.265.326-.375-.194a17.6,17.6,0,0,0-4.773-1.78,20.223,20.223,0,0,0-5.123-.388,26.547,26.547,0,0,0-5.132.788,28.669,28.669,0,0,0-4.945,1.7Z" transform="translate(-1571.897 -1483.48)" fill="#d4784b"/><g transform="translate(1.004 19.854)"><path d="M1576.5,1536.549c-6.987-4.533-6.454-11.637-4.512-18.791.313-1.154.663-2.3,1.035-3.439a27.257,27.257,0,0,0-7.684,2.531c-2.409-4.795-9.857-5.452-9.857-5.452a12.241,12.241,0,0,0-2.629,9.127c-6.134,8.47-3.505,23.951,10.515,28.04s32.129,2.628,37.194-7.3a17.076,17.076,0,0,0,1.814-8.287,29.289,29.289,0,0,1-8.3,5.728C1588.452,1541.114,1581.568,1539.839,1576.5,1536.549Z" transform="translate(-1549.734 -1508.583)" fill="#f7eade"/><path d="M1634.216,1503.792c-7.2.033-12.935,7.56-12.935,7.56a18.822,18.822,0,0,0-12.559-1.824c-.372,1.139-.722,2.285-1.035,3.439-1.943,7.154-2.476,14.257,4.511,18.791,5.071,3.29,11.955,4.565,17.58,2.155a29.28,29.28,0,0,0,8.3-5.728,26.509,26.509,0,0,0-3.858-12.451C1635.777,1510.186,1634.216,1503.792,1634.216,1503.792Z" transform="translate(-1585.436 -1503.792)" fill="#d4784b"/></g><path d="M1680.646,1466.936a9.179,9.179,0,0,0-6.988,2.331c-2.647,2.349-6,6.063-2.3,7.2,2.762.852,5.49.081,8.021-1.1,1.983-.921,5.629-1.274,6-3.868C1685.766,1468.741,1683,1467.175,1680.646,1466.936Z" transform="translate(-1624.3 -1460.697)" fill="#d4784b"/><path d="M1750.239,1566.7a32.377,32.377,0,0,0,3.056,4.609,22.44,22.44,0,0,0,3.853,3.884,18.744,18.744,0,0,0,4.682,2.717,15.64,15.64,0,0,0,2.578.786,12.071,12.071,0,0,0,2.624.284l3.219-.053-3.033,1.03c-3.213,1.091-6.443,2.193-9.6,3.463-1.575.641-3.14,1.313-4.646,2.1a22.317,22.317,0,0,0-2.187,1.291,7.581,7.581,0,0,0-1.852,1.661,1.492,1.492,0,0,0-.327,1.068,1.086,1.086,0,0,0,.236.5c.122.172.25.337.382.5a6.288,6.288,0,0,0,1.887,1.591,8.706,8.706,0,0,0,4.868.681,34.052,34.052,0,0,0,4.979-.932c1.64-.409,3.3-.852,4.9-1.368a35.407,35.407,0,0,0,16.258-11.436,35.979,35.979,0,0,0,7.867-18.4l.111.009a33.209,33.209,0,0,1-7.1,19.094,33.8,33.8,0,0,1-16.843,11.679,50.245,50.245,0,0,1-10.129,1.957,9.367,9.367,0,0,1-5.107-.918,6.679,6.679,0,0,1-1.98-1.716c-.136-.17-.267-.345-.389-.523a1.446,1.446,0,0,1-.289-.653,1.827,1.827,0,0,1,.4-1.318,7.963,7.963,0,0,1,1.922-1.765c.708-.493,1.439-.947,2.188-1.369,1.5-.846,3.029-1.616,4.586-2.333a93.523,93.523,0,0,1,9.55-3.807l.187.977a11.708,11.708,0,0,1-2.894-.323,16.574,16.574,0,0,1-2.727-.867,18.4,18.4,0,0,1-4.824-2.986,23.088,23.088,0,0,1-3.782-4.174,28.134,28.134,0,0,1-2.727-4.881Z" transform="translate(-1673.758 -1519.76)" fill="#d4784b"/><g transform="translate(40.812 34.715)"><path d="M1694.676,1627.929a9.64,9.64,0,0,1-2.743-3.283l-.3-.491h0c-.568-.929-.99-3.8-.962-6.527l0-.288-.288.009c-1.8.054-3.621.053-5.366,0-.856-.206-21.009-5.011-25.379-.8-2.052,1.979-2.836,4.388-2.1,6.445.616,1.713,2.85,4.678,10.891,5.3,3.9.3,9.008.622,14.677.622,3.636,0,7.5-.132,11.425-.487l.748-.068Z" transform="translate(-1657.276 -1588.587)" fill="#d4784b"/><g transform="translate(32.929)"><path d="M1789.759,1544.09s-3.75,27.813-43,28.979c-.028,2.636.2,5.644.834,6.675a11.913,11.913,0,0,0,3.284,3.857c11.042-1,22.414-3.787,29.143-10.536A33.91,33.91,0,0,0,1789.759,1544.09Z" transform="translate(-1746.561 -1544.034)" fill="#f8ebdf"/><path d="M1789.434,1544.051c.028.05.057,0,.04.062l-.015.11-.032.218-.072.435c-.05.29-.112.578-.173.865-.131.574-.286,1.142-.45,1.707a32.221,32.221,0,0,1-1.206,3.323,33.7,33.7,0,0,1-13.944,15.667l-1.54.888-1.592.788c-.525.275-1.076.492-1.619.725-.55.217-1.083.475-1.646.658-1.115.392-2.223.8-3.363,1.1-.568.157-1.127.345-1.7.475l-1.72.4a80.026,80.026,0,0,1-13.968,1.687l.184-.187c0,.986.026,1.972.1,2.952a14.866,14.866,0,0,0,.471,2.879,3.311,3.311,0,0,0,.26.633c.11.195.258.413.387.616.268.411.542.814.841,1.194a9.076,9.076,0,0,0,2.072,1.969l-.233-.062a79.748,79.748,0,0,0,15.393-3.072,41.2,41.2,0,0,0,7.177-3.031,27,27,0,0,0,6.227-4.545l1.318-1.432a15.772,15.772,0,0,0,1.273-1.47l1.185-1.543.3-.385.263-.409.525-.819a31.554,31.554,0,0,0,3.415-6.987c.2-.62.443-1.226.608-1.856l.506-1.891.381-1.921c.119-.643.184-1.294.278-1.941s.111-1.3.178-1.956c.039-.653.059-1.309.072-1.965-.007-.656-.006-1.313-.052-1.968-.013-.328-.04-.655-.07-.982-.013-.164-.028-.328-.05-.49l-.029-.244C1789.389,1544.146,1789.415,1544.152,1789.434,1544.051Zm0-.112a.72.72,0,0,1,.109.288l.046.244c.033.163.06.326.084.49.051.327.1.654.135.984.083.658.119,1.319.163,1.981.023.662.04,1.326.037,1.99-.026.663-.026,1.329-.088,1.99a33.426,33.426,0,0,1-4.844,15.1l-.521.859-.262.429-.3.4-1.2,1.612a16.475,16.475,0,0,1-1.3,1.533l-1.345,1.493a26.922,26.922,0,0,1-6.5,4.758,42.317,42.317,0,0,1-7.418,3.014,60.325,60.325,0,0,1-7.762,1.809c-2.616.445-5.251.746-7.891.932l-.135.01-.1-.072a9.88,9.88,0,0,1-2.143-2.184c-.3-.409-.57-.835-.829-1.261-.13-.22-.255-.415-.382-.655a3.827,3.827,0,0,1-.281-.747,16.4,16.4,0,0,1-.4-2.988c-.064-1-.082-1.991-.067-2.986l0-.184.181,0a57.685,57.685,0,0,0,13.843-1.872l1.684-.463c.562-.151,1.106-.359,1.66-.535,1.112-.342,2.185-.786,3.264-1.212a47.674,47.674,0,0,0,6.194-3.122,36.741,36.741,0,0,0,10.32-9.13,35.054,35.054,0,0,0,5.016-9.111c.194-.548.381-1.1.542-1.66.081-.279.164-.559.235-.842l.1-.425.048-.213.022-.107A.275.275,0,0,1,1789.43,1543.939Z" transform="translate(-1746.234 -1543.939)" fill="#d4784b"/></g></g><g transform="translate(64.155 2.946)"><g transform="translate(15.045 63.223)"><path d="M1765.932,1629.473h-4.671a.28.28,0,1,1,0-.56h4.671a.28.28,0,0,1,0,.56Z" transform="translate(-1760.981 -1628.913)" fill="#e8d0bf"/></g><g transform="translate(23.951 62.134)"><path d="M1785.32,1627.619a.28.28,0,0,1-.033-.557,25.585,25.585,0,0,0,4.895-1.072.28.28,0,1,1,.209.519,25.535,25.535,0,0,1-5.037,1.107A.2.2,0,0,1,1785.32,1627.619Z" transform="translate(-1785.041 -1625.969)" fill="#e8d0bf"/></g><g transform="translate(29.647 61.431)"><path d="M1800.77,1626.424h-.078a.279.279,0,0,1-.263-.294.287.287,0,0,1,.293-.265,8.3,8.3,0,0,0,4.5-1.745.28.28,0,0,1,.316.463A8.946,8.946,0,0,1,1800.77,1626.424Z" transform="translate(-1800.429 -1624.071)" fill="#e8d0bf"/></g><g transform="translate(33.589 58.007)"><path d="M1811.359,1616.906a.28.28,0,0,1-.026-.559c.028,0,2.817-.278,3.753-1.422a.28.28,0,1,1,.433.354c-1.084,1.326-4.009,1.614-4.133,1.626Z" transform="translate(-1811.08 -1614.822)" fill="#e8d0bf"/></g><g transform="translate(25.411 65.824)"><path d="M1789.785,1637.232c-.311,0-.51-.013-.537-.015a.28.28,0,0,1-.26-.3.274.274,0,0,1,.3-.26,9.34,9.34,0,0,0,4.089-.689.28.28,0,0,1,.254.5A9.082,9.082,0,0,1,1789.785,1637.232Z" transform="translate(-1788.986 -1635.94)" fill="#e8d0bf"/></g><path d="M1725.583,1459.109a.284.284,0,0,1-.081-.012c-3.042-.921-4.732-.032-4.749-.023a.28.28,0,0,1-.271-.49c.076-.042,1.894-1.02,5.182-.023a.28.28,0,0,1-.081.548Z" transform="translate(-1720.338 -1458.115)" fill="#e8d0bf"/><g transform="translate(10.223 0.397)"><path d="M1754.076,1460.3a.277.277,0,0,1-.1-.02c-1.819-.721-5.681-.5-5.721-.493a.28.28,0,0,1-.034-.559c.164-.01,4.027-.235,5.962.532a.28.28,0,0,1-.1.54Z" transform="translate(-1747.955 -1459.187)" fill="#e8d0bf"/></g><g transform="translate(19.715 0.946)"><path d="M1779.575,1462.779a.282.282,0,0,1-.165-.054c-1.242-.906-5.525-1.49-5.569-1.5a.28.28,0,1,1,.074-.554c.182.024,4.467.61,5.823,1.6a.28.28,0,0,1-.164.507Z" transform="translate(-1773.599 -1460.671)" fill="#e8d0bf"/></g><g transform="translate(5.55 2.494)"><path d="M1740.283,1465.876a.3.3,0,0,1-.066-.007,22.722,22.722,0,0,0-4.6-.457h0a.28.28,0,0,1,0-.56,22.8,22.8,0,0,1,4.742.473.28.28,0,0,1-.066.552Z" transform="translate(-1735.33 -1464.851)" fill="#e8d0bf"/></g><g transform="translate(16.064 3.336)"><path d="M1769.345,1468.392a.277.277,0,0,1-.119-.026c-1.175-.549-5.18-.677-5.22-.678a.28.28,0,0,1-.271-.288.271.271,0,0,1,.289-.271c.169.006,4.162.133,5.44.73a.28.28,0,0,1-.118.534Z" transform="translate(-1763.735 -1467.127)" fill="#e8d0bf"/></g><g transform="translate(19.715 64.773)"><path d="M1777.237,1633.661h-3.359a.28.28,0,1,1,0-.56h3.359a.28.28,0,0,1,0,.56Z" transform="translate(-1773.598 -1633.101)" fill="#e8d0bf"/></g></g></g><g transform="translate(0 39.999)"><g transform="translate(16.118)"><path d="M1567.846,1558.213a4.445,4.445,0,0,0,3.327,1.448,5.882,5.882,0,0,0,1.752-.51c.282-.161.589-.294.891-.453a9.092,9.092,0,0,1,.94-.486,7.823,7.823,0,0,1-.6.905,8.781,8.781,0,0,1-.782.766,4.231,4.231,0,0,1-2.114.877,3.208,3.208,0,0,1-2.248-.689A3.28,3.28,0,0,1,1567.846,1558.213Z" transform="translate(-1567.846 -1558.213)" fill="#514455"/><path d="M1634,1559.014c1.166,1,2.368,1.82,3.611,1.742a4.628,4.628,0,0,0,1.856-.563l.924-.552a10.593,10.593,0,0,1,.952-.627,9.041,9.041,0,0,1-.577,1.018,7.7,7.7,0,0,1-.811.871,3.971,3.971,0,0,1-2.3.956,3.425,3.425,0,0,1-2.367-.867A4.1,4.1,0,0,1,1634,1559.014Z" transform="translate(-1609.512 -1558.718)" fill="#514455"/></g><path d="M1601.427,1576.52a.36.36,0,0,0-.509.023c-1.027,1.124-1.954,1.6-2.756,1.412-1.026-.238-1.682-1.487-1.984-2.218,1.427-.909,2.649-3.506,2.8-3.826a.361.361,0,0,0-.226-.5,9.409,9.409,0,0,0-5.784.01.36.36,0,0,0-.225.31c-.09,1.249,1.749,3.234,2.426,3.92l-.017.066a5.81,5.81,0,0,1-.218.76,2.9,2.9,0,0,1-1.978.878,4.267,4.267,0,0,1-2.6-1.259.361.361,0,0,0-.525.495,4.938,4.938,0,0,0,3.109,1.485,3.435,3.435,0,0,0,2.5-1.086,1.278,1.278,0,0,0,.268-.554,3.847,3.847,0,0,0,2.293,2.217,2.263,2.263,0,0,0,.513.059,4.234,4.234,0,0,0,2.939-1.687A.359.359,0,0,0,1601.427,1576.52Z" transform="translate(-1565.51 -1566.254)" fill="#df9d7a"/><g transform="translate(0 8.014)"><path d="M1640.4,1581.9a35.158,35.158,0,0,1,4.385-1.2,39.7,39.7,0,0,1,4.5-.723,24.784,24.784,0,0,1,4.557-.007,11.986,11.986,0,0,1,4.378,1.177,14.272,14.272,0,0,0-4.394-.994,24.739,24.739,0,0,0-4.516.1,39.416,39.416,0,0,0-4.485.628C1643.342,1581.175,1641.864,1581.5,1640.4,1581.9Z" transform="translate(-1597.427 -1579.863)" fill="#514455"/><path d="M1633.4,1587.121c2.335-.416,4.69-.7,7.049-.934,1.181-.1,2.364-.2,3.55-.238a13.483,13.483,0,0,1,3.547.2,16.886,16.886,0,0,0-3.535.012c-1.179.083-2.358.18-3.535.3Z" transform="translate(-1593.017 -1583.682)" fill="#514455"/><path d="M1636.609,1593.657c2.664-.146,5.333-.109,8,0,1.331.083,2.664.18,3.989.352a15,15,0,0,1,3.885.94,18.2,18.2,0,0,0-3.91-.729q-1.984-.19-3.978-.287C1641.936,1593.791,1639.274,1593.738,1636.609,1593.657Z" transform="translate(-1595.038 -1588.491)" fill="#514455"/><path d="M1541.365,1583.931c-1.423-.136-2.848-.247-4.271-.361s-2.85-.172-4.276-.194c-1.425-.055-2.853-.07-4.276.008a24.166,24.166,0,0,0-4.237.546,17.555,17.555,0,0,1,4.225-.729c1.43-.11,2.864-.127,4.3-.1A68.811,68.811,0,0,1,1541.365,1583.931Z" transform="translate(-1524.304 -1581.896)" fill="#514455"/><path d="M1548.8,1588.437a64.543,64.543,0,0,0-8.746,0,17.621,17.621,0,0,1,4.373-.422A26.961,26.961,0,0,1,1548.8,1588.437Z" transform="translate(-1534.225 -1584.997)" fill="#514455"/><path d="M1546.727,1593.177c-.966-.069-1.932-.1-2.9-.113s-1.929-.006-2.887.072a17.918,17.918,0,0,0-2.854.37,9.048,9.048,0,0,0-2.7.978,7.593,7.593,0,0,1,2.651-1.185,15.911,15.911,0,0,1,2.885-.438A25.178,25.178,0,0,1,1546.727,1593.177Z" transform="translate(-1531.286 -1588.021)" fill="#514455"/></g></g><path d="M1669.92,1507.663s-6.319,7.776-5.561,9.287,5.221,2.105,5.221,2.105S1671.627,1510.829,1669.92,1507.663Z" transform="translate(-1612.477 -1486.376)" fill="#e6c4c0"/></g><g transform="translate(635.868 656.2)"><g transform="translate(1.165 7.162)"><path d="M1076.725,1434.279a2.21,2.21,0,0,1-2.06-3l34.014-88.208a2.211,2.211,0,0,1,2.854-1.265c1.137.439,6.267,3.255,5.828,4.392l-38.577,86.67A2.209,2.209,0,0,1,1076.725,1434.279Z" transform="translate(-1074.516 -1341.656)" fill="#eb915f"/></g><g transform="translate(122.907 20.364)"><path d="M1416.765,1452.008a2.208,2.208,0,0,1-2.175-1.842c-3.445-20.533-11.43-68.543-11.178-70.875a2.211,2.211,0,0,1,2.432-1.958c1.174.127,5.217.56,5.152,1.726.079,2.984,3.507,43.9,7.949,70.376a2.208,2.208,0,0,1-1.812,2.543A2.267,2.267,0,0,1,1416.765,1452.008Zm-8.956-72.329c0,.029,0,.057-.007.086C1407.8,1379.743,1407.808,1379.713,1407.809,1379.679Z" transform="translate(-1403.406 -1377.32)" fill="#d4784e"/></g><g transform="translate(135.482 18.541)"><path d="M1457.979,1463.965a2.208,2.208,0,0,1-2.158-1.752l-18.4-87.156a2.208,2.208,0,0,1,1.7-2.616c1.2-.254,5.574.585,5.827,1.778l15.185,87.082a2.208,2.208,0,0,1-2.162,2.664Z" transform="translate(-1437.377 -1372.396)" fill="#eb915f"/></g><path d="M1242.975,1333.358c0,6.1-15.034,11.051-62.421,11.051s-109.184-4.948-109.184-11.051,61.8-11.051,109.184-11.051S1242.975,1327.255,1242.975,1333.358Z" transform="translate(-1071.37 -1322.307)" fill="#fdfcfb"/></g><g transform="translate(751.577 615.663)"><path d="M1469.991,1293.111s-8.667-3.548-11.216,5.293C1458.775,1298.4,1465.623,1302.952,1469.991,1293.111Z" transform="translate(-1431.081 -1262.938)" fill="#81b070"/><path d="M1427.821,1246.615a16.5,16.5,0,1,1-16.494-16.5A16.494,16.494,0,0,1,1427.821,1246.615Z" transform="translate(-1390.807 -1223.706)" fill="#488e53"/><path d="M1446.275,1221.682s-8.134,2.441-7.081,9C1439.194,1230.678,1446.063,1230.882,1446.275,1221.682Z" transform="translate(-1418.689 -1218.392)" fill="#488e53"/><path d="M1410.461,1224.86s2.135,8.219,8.725,7.41C1419.186,1232.27,1419.647,1225.414,1410.461,1224.86Z" transform="translate(-1400.651 -1220.394)" fill="#44844d"/><path d="M1401.9,1234.209s1.278,8.762,9.086,8.181C1410.984,1242.39,1411.286,1234.909,1401.9,1234.209Z" transform="translate(-1395.258 -1226.282)" fill="#30734b"/><path d="M1431.51,1212.8s-4,7.488,1.386,11.363C1432.9,1224.158,1437.885,1219.43,1431.51,1212.8Z" transform="translate(-1413.008 -1212.795)" fill="#81b070"/><path d="M1430.012,1229.494s-5.991,6.519-.613,12.21C1429.4,1241.7,1435.393,1237.218,1430.012,1229.494Z" transform="translate(-1411.167 -1223.313)" fill="#488e53"/><path d="M1456,1229.285s-8.38,2.855-6.384,10.426C1449.62,1239.711,1457.031,1238.642,1456,1229.285Z" transform="translate(-1425.121 -1223.181)" fill="#488e53"/><path d="M1444.984,1230.826s-7.894,4.01-4.848,11.223C1440.136,1242.049,1447.321,1239.945,1444.984,1230.826Z" transform="translate(-1418.901 -1224.152)" fill="#81b070"/><path d="M1421.271,1242.9s-4.131,7.865,2.548,12C1423.819,1254.894,1428.478,1249,1421.271,1242.9Z" transform="translate(-1406.664 -1231.753)" fill="#488e53"/><path d="M1440.04,1245.533s-7.759,4.326-4.425,11.441C1435.615,1256.974,1442.737,1254.584,1440.04,1245.533Z" transform="translate(-1415.97 -1233.415)" fill="#488e53"/><path d="M1468.463,1234.947s-7.758,4.327-4.424,11.439C1464.04,1246.386,1471.162,1244,1468.463,1234.947Z" transform="translate(-1433.873 -1226.747)" fill="#81b070"/><path d="M1455.816,1245.533s-7.758,4.326-4.425,11.441C1451.391,1256.974,1458.513,1254.584,1455.816,1245.533Z" transform="translate(-1425.906 -1233.415)" fill="#488e53"/><path d="M1476.388,1245.692s-7.758,4.327-4.425,11.441C1471.963,1257.133,1479.086,1254.745,1476.388,1245.692Z" transform="translate(-1438.864 -1233.515)" fill="#488e53"/><path d="M1395.768,1243.222s-1.373,8.776,6.284,10.533C1402.053,1253.755,1404.56,1246.674,1395.768,1243.222Z" transform="translate(-1391.337 -1231.959)" fill="#488e53"/><path d="M1404.831,1248.25s-1.372,8.777,6.284,10.534C1411.115,1258.784,1413.622,1251.7,1404.831,1248.25Z" transform="translate(-1397.045 -1235.126)" fill="#30734b"/><path d="M1465.174,1255.491s-8.38,2.854-6.384,10.424C1458.79,1265.915,1466.2,1264.848,1465.174,1255.491Z" transform="translate(-1430.897 -1239.687)" fill="#488e53"/><path d="M1385.7,1256.253s-.534,8.838,7.23,9.859C1392.93,1266.112,1394.75,1258.85,1385.7,1256.253Z" transform="translate(-1385.052 -1240.167)" fill="#30734b"/><path d="M1476.577,1262.354s-8.381,2.855-6.383,10.426C1470.194,1272.78,1477.6,1271.711,1476.577,1262.354Z" transform="translate(-1438.079 -1244.009)" fill="#81b070"/><path d="M1422.727,1260.208s-5.991,6.518-.613,12.209C1422.114,1272.417,1428.108,1267.932,1422.727,1260.208Z" transform="translate(-1406.579 -1242.657)" fill="#488e53"/><path d="M1448.541,1261.88s-7.836,4.121-4.689,11.29C1443.852,1273.17,1451.007,1270.965,1448.541,1261.88Z" transform="translate(-1421.213 -1243.711)" fill="#488e53"/><path d="M1405.417,1265.767s-1.44,8.736,6.177,10.55C1411.593,1276.317,1414.15,1269.281,1405.417,1265.767Z" transform="translate(-1397.406 -1246.159)" fill="#44844d"/><path d="M1461.177,1265.661s-7.757,4.326-4.425,11.439C1456.752,1277.1,1463.876,1274.712,1461.177,1265.661Z" transform="translate(-1429.284 -1246.092)" fill="#81b070"/><path d="M1469.281,1277.129s-8.186,3.45-5.654,10.885C1463.626,1288.014,1470.968,1286.423,1469.281,1277.129Z" transform="translate(-1433.831 -1253.315)" fill="#488e53"/><path d="M1388.483,1273.935s-1.374,8.777,6.283,10.534C1394.767,1284.469,1397.274,1277.389,1388.483,1273.935Z" transform="translate(-1386.749 -1251.303)" fill="#488e53"/><path d="M1383.96,1290.5a10.306,10.306,0,0,0,11.217,8.208S1395.551,1291.206,1383.96,1290.5Z" transform="translate(-1383.96 -1261.739)" fill="#30734b"/><path d="M1403.893,1280.337s-5.084,7.865,3.137,12C1407.03,1292.337,1412.761,1286.442,1403.893,1280.337Z" transform="translate(-1395.536 -1255.336)" fill="#488e53"/><path d="M1421.991,1280.018s-8.1,4.694-2.663,12.115C1419.328,1292.133,1427.114,1289.49,1421.991,1280.018Z" transform="translate(-1405.052 -1255.135)" fill="#30734b"/><path d="M1460.381,1294.12s-9.365-.069-8.442,9.087C1451.939,1303.208,1459.989,1304.88,1460.381,1294.12Z" transform="translate(-1426.735 -1264.017)" fill="#488e53"/><path d="M1450.78,1281.2s-8.854,3.052-4.936,11.379C1445.844,1292.576,1453.992,1291.473,1450.78,1281.2Z" transform="translate(-1422.307 -1255.877)" fill="#488e53"/><path d="M1435.5,1256.882s-7.086,6.027-.544,12.338C1434.951,1269.22,1442.073,1265.259,1435.5,1256.882Z" transform="translate(-1414.33 -1240.563)" fill="#44844d"/><path d="M1436.683,1277.438s-7.3,5.871-.788,12.378C1435.9,1289.816,1443.187,1286.018,1436.683,1277.438Z" transform="translate(-1414.969 -1253.51)" fill="#81b070"/><g transform="translate(1.018 35.972)"><path d="M1423.149,1327.453H1389.6c2.955-3.966.963-9.032-1.99-13h37.533C1422.183,1318.421,1420.192,1323.487,1423.149,1327.453Z" transform="translate(-1387.274 -1312.796)" fill="#dbaea4"/><rect width="38.528" height="4.643" fill="#687683"/><rect width="33.502" height="2.26" transform="translate(2.322 14.657)" fill="#687683"/></g></g><g transform="translate(875.127 523.329)"><g transform="translate(1.259 29.544)"><path d="M1767.841,1048.4a5.468,5.468,0,0,1,3.448-5.095,5.353,5.353,0,0,0-1.182-.133h-43.559a5.442,5.442,0,0,0-5.414,5.469v.4h46.707Z" transform="translate(-1721.134 -1043.168)" fill="#fffbef"/><path d="M1767.841,1059.16v-.136h-46.707v.377a5.442,5.442,0,0,0,5.414,5.469h43.559c.694,0,.5.106,1.1-.134C1768.387,1063.145,1767.841,1061.77,1767.841,1059.16Z" transform="translate(-1721.134 -1053.155)" fill="#ededed"/></g><g transform="translate(0 28.273)"><path d="M1720.251,1046.476a4.181,4.181,0,0,1,4.155-4.2h43.559a1.271,1.271,0,0,0,0-2.542h-43.559a6.713,6.713,0,0,0-6.673,6.74v.388h2.518Z" transform="translate(-1717.733 -1039.736)" fill="#ffcb83"/><path d="M1767.965,1063.578h-43.559a4.181,4.181,0,0,1-4.155-4.2v-.389h-2.518v.389a6.714,6.714,0,0,0,6.673,6.741h43.559a1.272,1.272,0,0,0,0-2.543Z" transform="translate(-1717.733 -1051.864)" fill="#ffcb83"/></g><g transform="translate(4.423 16.445)"><path d="M1769.234,1012.542a4.989,4.989,0,0,1,2.92-4.64,4.24,4.24,0,0,0-1-.121h-36.886a4.8,4.8,0,0,0-4.584,4.981v.365h39.55Z" transform="translate(-1729.683 -1007.781)" fill="#fffbef"/><path d="M1769.234,1022.346v-.124h-39.55v.344a4.794,4.794,0,0,0,4.584,4.979h36.886c.588,0,.419.1.935-.12C1769.7,1025.976,1769.234,1024.723,1769.234,1022.346Z" transform="translate(-1729.683 -1016.877)" fill="#ededed"/></g><path d="M1769.339,1015.323h-36.885a3.684,3.684,0,0,1-3.518-3.822v-.708a3.684,3.684,0,0,1,3.518-3.823h36.885a1.162,1.162,0,0,0,0-2.316h-36.885a5.916,5.916,0,0,0-5.65,6.139v.708a5.916,5.916,0,0,0,5.65,6.139h36.885a1.162,1.162,0,0,0,0-2.317Z" transform="translate(-1723.446 -989.366)" fill="#387498"/><g transform="translate(6.71)"><g transform="translate(27.216 0.559)"><path d="M1821.136,988.294a6.19,6.19,0,0,1-1.056-3.458v-.5l-10.694-.012v.506a6.609,6.609,0,0,0,6.689,6.446l.079,0h5.713a7.022,7.022,0,0,0,2.476-.447A6.727,6.727,0,0,1,1821.136,988.294Z" transform="translate(-1809.386 -977.117)" fill="#ededed"/><path d="M1820.08,971.324a6.192,6.192,0,0,1,1.068-3.475,6.744,6.744,0,0,1,3.225-2.526,7.04,7.04,0,0,0-2.505-.458h-5.713a6.615,6.615,0,0,0-6.769,6.449v.753l10.694.012Z" transform="translate(-1809.386 -964.864)" fill="#fffbef"/></g><path d="M1784.469,971.969V970.71a7.088,7.088,0,0,1,5.57-6.8h-16.375a11.118,11.118,0,0,0,0,15.106h17.283a7.065,7.065,0,0,0,.723-.04A7.172,7.172,0,0,1,1784.469,971.969Z" transform="translate(-1757.806 -963.703)" fill="#ff7362"/><g transform="translate(0 0.204)"><path d="M1754.747,963.907h-1.991a11.092,11.092,0,0,0,0,15.069h-1.689a6.826,6.826,0,0,0,.707.037h2.974a11.118,11.118,0,0,1,0-15.106Z" transform="translate(-1744.643 -963.907)" fill="#ff7362"/><path d="M1742.156,964.051c-4.7,0-6.3,3.628-6.3,7.5,0,.021,0,.042,0,.063.03,3.857.964,7.441,6.332,7.441a11.087,11.087,0,0,1-.038-15Z" transform="translate(-1735.861 -963.998)" fill="#ff7362"/><path d="M1765.294,963.907H1763.3a11.118,11.118,0,0,0,0,15.106h1.992a11.118,11.118,0,0,1,0-15.106Z" transform="translate(-1751.281 -963.907)" fill="#ff7362"/></g><path d="M1823.249,990.742h-8.037a6.066,6.066,0,0,1-6.216-5.889v-.49h-1.107v.488a7.172,7.172,0,0,0,7.2,7l.123,0h8.037a.559.559,0,0,0,0-1.118Z" transform="translate(-1781.228 -976.587)" fill="#ffb143"/><path d="M1823.249,963.355h-8.037a7.632,7.632,0,0,0-1.753.2,7.088,7.088,0,0,0-5.57,6.8v.771H1809v-.769a6.066,6.066,0,0,1,6.216-5.89h8.037a.559.559,0,0,0,0-1.117Z" transform="translate(-1781.228 -963.355)" fill="#ffb043"/><path d="M1752.98,1004.6h.081l-.091-.011Z" transform="translate(-1746.637 -989.324)" fill="#ffb143"/><path d="M1746.792,984.462l-1.771,0a11.034,11.034,0,0,0,2.942,7.445l.091.011h1.689A11.043,11.043,0,0,1,1746.792,984.462Z" transform="translate(-1741.63 -976.649)" fill="#ffb143"/><path d="M1745.021,971.519l1.771,0a11.042,11.042,0,0,1,2.952-7.609h-.982a6.756,6.756,0,0,0-.836.053A11.038,11.038,0,0,0,1745.021,971.519Z" transform="translate(-1741.63 -963.703)" fill="#ffb043"/><path d="M1755.163,971.512l1.917,0a11.072,11.072,0,0,1,2.959-7.6h-1.917A11.063,11.063,0,0,0,1755.163,971.512Z" transform="translate(-1748.018 -963.703)" fill="#ffb043"/><path d="M1755.163,984.448a11.064,11.064,0,0,0,2.959,7.5h1.917a11.064,11.064,0,0,1-2.959-7.5Z" transform="translate(-1748.018 -976.639)" fill="#ffb143"/><path d="M1765.723,971.506l1.844,0a11.07,11.07,0,0,1,2.959-7.6h-1.844A11.066,11.066,0,0,0,1765.723,971.506Z" transform="translate(-1754.669 -963.703)" fill="#ffb043"/><path d="M1765.723,984.432a11.065,11.065,0,0,0,2.959,7.507h1.844a11.063,11.063,0,0,1-2.959-7.51Z" transform="translate(-1754.669 -976.628)" fill="#ffb143"/></g></g><g transform="translate(858.598 426.372)"><g transform="translate(0 0)"><rect width="16.603" height="57.445" transform="translate(0 1.331) rotate(-4.598)" fill="#ff746a"/><circle cx="4.077" cy="4.077" r="4.077" transform="translate(6.039 45.321) rotate(-35.329)" fill="#514455" stroke="#f7f4ec" stroke-miterlimit="10" stroke-width="1"/></g><rect width="9.197" height="31.377" transform="matrix(0.997, -0.08, 0.08, 0.997, 4.114, 5.962)" fill="#eee"/></g><path d="M1285.787,1276.691a3.268,3.268,0,0,0-2.984-.4,8.21,8.21,0,0,0-2.915,1.786q.164-2.288.311-4.56a.643.643,0,0,0-.668-.657h-21.086a.694.694,0,0,0-.72.709c.585,9.17,1.463,18.547,2.018,28.083a2.388,2.388,0,0,0,1.683,2.03,29.568,29.568,0,0,0,15.174-.027,2.241,2.241,0,0,0,1.573-1.9q.153-2.641.336-5.265c2.192-1.072,3.766-3.268,5.046-5.394a26.338,26.338,0,0,0,3.211-8.365l0-.013C1287.1,1281.12,1287.7,1278.144,1285.787,1276.691Zm-1.187,5.586,0,.013a24.138,24.138,0,0,1-2.938,7.665,15.029,15.029,0,0,1-2.953,3.767c.3-4.077.62-8.122.924-12.132a9.567,9.567,0,0,1,3.855-3.189,1.135,1.135,0,0,1,.964.054C1285.255,1279.066,1284.813,1281.235,1284.6,1282.277Z" transform="translate(-552.875 -634.965)" fill="#ffcc83"/><g transform="translate(715.817 612.475)"><path d="M1291.332,1211.945a.036.036,0,0,0-.034-.062c-1.747.741-7.031,3.74-1.449,11.3,4.252,5.758.579,8.958-.966,9.964a.045.045,0,0,0,.043.078c2.207-1.006,9-4.824,3.7-11.811C1287.869,1215.132,1290.211,1212.674,1291.332,1211.945Z" transform="translate(-1287.355 -1209.031)" fill="#f7eade"/><path d="M1304.4,1204.249a.035.035,0,0,0-.034-.062c-1.746.741-7.031,3.74-1.449,11.3,4.252,5.758.579,8.958-.966,9.964a.045.045,0,0,0,.043.078c2.207-1.006,9-4.824,3.7-11.811C1300.939,1207.436,1303.281,1204.978,1304.4,1204.249Z" transform="translate(-1295.587 -1204.183)" fill="#f7eade"/></g></g></svg>