<?xml version="1.0" encoding="UTF-8"?> <!-- Generator: Adobe Illustrator 23.0.0, SVG Export Plug-In . SVG Version: 6.00 Build 0) --> <svg xmlns="http://www.w3.org/2000/svg" xmlns:xlink="http://www.w3.org/1999/xlink" id="Layer_1" x="0px" y="0px" viewBox="0 0 227.7 228" style="enable-background:new 0 0 227.7 228;" xml:space="preserve"> <style type="text/css"> .st0{fill:#F94B4F;} .st1{fill:#5700A5;} .st2{opacity:0.28;fill:url(#SVGID_1_);enable-background:new ;} .st3{opacity:0.28;fill:url(#SVGID_2_);enable-background:new ;} .st4{opacity:0.28;fill:url(#SVGID_3_);enable-background:new ;} .st5{opacity:0.28;fill:url(#SVGID_4_);enable-background:new ;} .st6{opacity:0.34;fill:#515151;enable-background:new ;} .st7{opacity:0.91;fill:url(#SVGID_5_);enable-background:new ;} .st8{fill:#9A9FB3;} .st9{fill:#FF8888;} .st10{display:none;opacity:0.83;} .st11{display:inline;fill:#5700A5;} .st12{display:inline;} .st13{clip-path:url(#SVGID_7_);} .st14{fill:#FFFFFF;} .st15{opacity:0.28;fill:url(#SVGID_8_);enable-background:new ;} .st16{opacity:0.28;fill:url(#SVGID_9_);enable-background:new ;} .st17{fill:#F1197C;} .st18{fill:#FF9900;} .st19{fill:#7049BA;} .st20{fill:#402C2C;} .st21{fill:#321E5B;} .st22{opacity:0.2;enable-background:new ;} .st23{fill:#FFADAD;} .st24{fill:#212226;} .st25{fill:#A67070;} .st26{opacity:0.91;fill:url(#SVGID_10_);enable-background:new ;} .st27{display:inline;fill:#F1197C;} .st28{clip-path:url(#SVGID_12_);} .st29{fill:url(#SVGID_13_);} .st30{fill:url(#SVGID_14_);} .st31{fill:#FF7816;} .st32{fill:#FED2A4;} .st33{fill:#FFBD86;} .st34{fill:#F7B081;} .st35{fill:#EFE7E4;} .st36{fill:#D8D1D0;} .st37{fill:#DD9A76;} .st38{fill:#F7CB4F;} .st39{fill:#FBAB00;} .st40{fill:#FFC89F;} .st41{opacity:0.28;fill:url(#SVGID_15_);enable-background:new ;} .st42{fill:#FFE7DB;} .st43{fill:none;stroke:#9A9FB3;stroke-width:0.2259;stroke-miterlimit:10;} .st44{fill:#4284F3;} .st45{fill:#5F6368;} .st46{fill:#FABB04;} .st47{fill:#34A753;} .st48{fill:#E4BF47;} .st49{fill:#00AFF0;} .st50{fill:#101010;} .st51{opacity:0.68;fill:#FF8888;enable-background:new ;} .st52{fill:none;stroke:#FFFFFF;stroke-width:0.9037;stroke-miterlimit:10;} </style> <g id="bg"> <path class="st0" d="M104.9,8.7c52.9-3.6,77.4,23.2,91,59.2c13.6,36,33.7,48.4,19.8,89.8s-64.1,46.9-83.7,42 c-19.6-4.8-39.9-17.4-64.4-26.8c-36.3-14-45.3-32.4-46-50.6c-1-25.7,12.5-28.6,16.9-56.7C43.7,31.8,63.5,11.5,104.9,8.7z"></path> <path class="st1" d="M33.3,52.1c-25.9,41.6-4.7,94.5,23.5,121.7c25.2,24.3,69.3,41.1,93.7,25.6c17.8-11.3,13.4-32.5,40.4-53.9 c17.6-13.9,26.2-10.3,31.9-20.2C236.5,101.7,208,45,162,23.8C123.4,6.1,60.9,7.8,33.3,52.1z"></path> <linearGradient id="SVGID_1_" gradientUnits="userSpaceOnUse" x1="84.8734" y1="843.0427" x2="84.8734" y2="808.3534" gradientTransform="matrix(1 0 0 1 0 -780)"> <stop offset="0" style="stop-color:#FFFFFF"></stop> <stop offset="1" style="stop-color:#000000"></stop> </linearGradient> <polygon class="st2" points="92.6,69.6 77.1,69.6 77.1,18.7 84.5,16.6 92.6,14.8 "></polygon> <linearGradient id="SVGID_2_" gradientUnits="userSpaceOnUse" x1="105.2234" y1="793.8307" x2="105.2234" y2="828.4409" gradientTransform="matrix(1 0 0 1 0 -780)"> <stop offset="0" style="stop-color:#FFFFFF"></stop> <stop offset="1" style="stop-color:#392ECF"></stop> </linearGradient> <path class="st3" d="M112.9,69.6H97.4V14.2c2.5-0.3,5.1-0.5,8-0.7c2.7-0.1,5.2-0.2,7.6-0.2C112.9,32.1,112.9,50.8,112.9,69.6z"></path> <linearGradient id="SVGID_3_" gradientUnits="userSpaceOnUse" x1="138.9734" y1="795.3511" x2="138.9734" y2="836.2124" gradientTransform="matrix(1 0 0 1 0 -780)"> <stop offset="0" style="stop-color:#FFFFFF"></stop> <stop offset="1" style="stop-color:#392ECF"></stop> </linearGradient> <path class="st4" d="M131.2,14.8c2.5,0.4,5.1,0.9,7.9,1.5c2.7,0.6,5.2,1.2,7.6,1.9c0,21,0,42,0,63h-15.5V14.8z"></path> <linearGradient id="SVGID_4_" gradientUnits="userSpaceOnUse" x1="157.5734" y1="853.7637" x2="157.5734" y2="814.47" gradientTransform="matrix(1 0 0 1 0 -780)"> <stop offset="0" style="stop-color:#FFFFFF"></stop> <stop offset="1" style="stop-color:#000000"></stop> </linearGradient> <polygon class="st5" points="165.3,81.2 149.8,81.2 149.8,19.1 157.5,21.9 165.3,25.4 "></polygon> </g> <ellipse class="st6" cx="57.8" cy="213.7" rx="30" ry="5.9"></ellipse> <ellipse class="st6" cx="171.8" cy="213.7" rx="30" ry="5.9"></ellipse> <g> <linearGradient id="SVGID_5_" gradientUnits="userSpaceOnUse" x1="308.0079" y1="857.4405" x2="308.0079" y2="903.414" gradientTransform="matrix(1 0 -0.1879 1 -50.9255 -780)"> <stop offset="0" style="stop-color:#FFFFFF"></stop> <stop offset="1" style="stop-color:#000000"></stop> </linearGradient> <polygon class="st7" points="116.9,101.9 65.8,101.9 71.9,69.6 122.9,69.6 "></polygon> <g> <polygon class="st8" points="115.3,78.3 100.2,78.3 100.3,77.6 115.4,77.6 "></polygon> <polygon class="st8" points="114.8,80.9 99.7,80.9 99.8,80.3 114.9,80.3 "></polygon> <polygon class="st8" points="114.3,83.5 99.2,83.5 99.3,82.9 114.4,82.9 "></polygon> <polygon class="st8" points="113.8,86.2 98.7,86.2 98.8,85.5 114,85.5 "></polygon> <polygon class="st8" points="113.3,88.8 98.2,88.8 98.3,88.2 113.5,88.2 "></polygon> <polygon class="st8" points="112.2,94.8 107.2,94.8 107.3,94.2 112.3,94.2 "></polygon> </g> <path class="st9" d="M74.6,71.5c-0.1,0.4-0.5,0.7-0.9,0.7s-0.7-0.3-0.6-0.7c0.1-0.4,0.5-0.7,0.9-0.7S74.7,71.1,74.6,71.5z"></path> <path class="st9" d="M77.8,71.5c-0.1,0.4-0.5,0.7-0.9,0.7s-0.7-0.3-0.6-0.7c0.1-0.4,0.5-0.7,0.9-0.7S77.9,71.1,77.8,71.5z"></path> <path class="st9" d="M81,71.5c-0.1,0.4-0.5,0.7-0.9,0.7s-0.7-0.3-0.6-0.7c0.1-0.4,0.5-0.7,0.9-0.7C80.8,70.8,81.1,71.1,81,71.5z"></path> <g class="st10"> <path class="st11" d="M95.8,85.3c-1,5.5-6.3,9.9-11.8,9.9s-9.1-4.4-8.1-9.9s6.3-9.9,11.8-9.9C93.2,75.3,96.8,79.8,95.8,85.3z"></path> <g class="st12"> <g> <g> <g> <g> <defs> <path id="SVGID_6_" d="M95.8,85.3c-1,5.5-6.3,9.9-11.8,9.9s-9.1-4.4-8.1-9.9s6.3-9.9,11.8-9.9 C93.2,75.3,96.8,79.8,95.8,85.3z"></path> </defs> <clipPath id="SVGID_7_"> <use xlink:href="#SVGID_6_" style="overflow:visible;"></use> </clipPath> <g class="st13"> <path class="st14" d="M89.7,83c-0.4,1.9-2.2,3.4-4,3.4c-1.9,0-3.1-1.5-2.8-3.4c0.4-1.9,2.2-3.4,4-3.4S90,81.1,89.7,83z"></path> <path class="st14" d="M91.9,95.2c-0.8,4.3-5,7.9-9.3,7.9s-7.2-3.5-6.4-7.9c0.8-4.3,5-7.9,9.3-7.9 C89.8,87.3,92.7,90.8,91.9,95.2z"></path> </g> </g> </g> </g> </g> </g> </g> </g> <linearGradient id="SVGID_8_" gradientUnits="userSpaceOnUse" x1="94.3734" y1="907.7127" x2="94.3734" y2="879.2077" gradientTransform="matrix(1 0 0 1 0 -780)"> <stop offset="0" style="stop-color:#FFFFFF"></stop> <stop offset="1" style="stop-color:#392ECF"></stop> </linearGradient> <polygon class="st15" points="116.9,102.1 65.8,102.1 71.9,134.4 122.9,134.4 "></polygon> <linearGradient id="SVGID_9_" gradientUnits="userSpaceOnUse" x1="-2781.3062" y1="914.9184" x2="-2781.3062" y2="888.535" gradientTransform="matrix(-1 0 0 1 -2631.7827 -780)"> <stop offset="0" style="stop-color:#FFFFFF"></stop> <stop offset="1" style="stop-color:#392ECF"></stop> </linearGradient> <polygon class="st16" points="128.7,111.2 175.9,111.2 170.3,141.1 123.1,141.1 "></polygon> <g> <polygon class="st17" points="89.2,82.1 95.4,82.1 96.3,77.1 90.1,77.1 "></polygon> <polygon class="st18" points="81.6,82.1 87.8,82.1 88.7,77.1 82.5,77.1 "></polygon> <polygon class="st1" points="72.9,87.3 81.5,87.3 82.2,83.3 73.7,83.3 "></polygon> <polygon class="st0" points="72,93.4 80.5,93.4 81.3,88.5 72.7,88.5 "></polygon> <polygon class="st1" points="71.4,97.4 92.8,97.4 93.3,94.8 71.8,94.8 "></polygon> <polygon class="st0" points="74,82.1 80.1,82.1 81,77.1 74.9,77.1 "></polygon> <polygon class="st19" points="87.2,93.6 93.4,93.6 95.1,83.3 89,83.3 "></polygon> <polygon class="st19" points="85.7,93.6 81.9,93.6 83.7,83.3 87.5,83.3 "></polygon> </g> <g> <path class="st20" d="M61.1,203.2l-0.6,10h17.9c0,0-7.3-4.9-10.5-6.5l-0.4-3.5H61.1z"></path> <path class="st19" d="M66.6,123.9l1.2,82h-7.1c0,0-7.8-32.1-4-41.5l-6.8-40.5C49.9,123.9,66.6,123.9,66.6,123.9z"></path> <path class="st21" d="M66.6,123.9H50l6.8,40.5c-1.3,3.3-1.3,9.2-0.6,15.7L67.7,194L66.6,123.9z"></path> <path class="st20" d="M42.3,204.5l-2.7,10h19.5c0,0-8.2-4.9-11.5-6.5l0.6-3.5H42.3z"></path> <path class="st19" d="M67.1,122.9L60.2,164l-11.7,41.9h-7c0,0,2.2-40.2,9.5-44.4l-5.7-38.6H67.1z"></path> <polygon class="st22" points="66.7,125.7 67.1,122.9 45.3,122.9 45.8,126.2 66.7,128.9 "></polygon> <path class="st23" d="M78.4,94.5c0,0,4.3-7,11.1-8.6l-2.7,3.2c0,0,1.3,3.3-0.3,5c-1.6,1.7-4.2,1.8-4.2,1.8l-1.8,2L78.4,94.5z"></path> <path class="st14" d="M61.2,88.7l5.9,12.1L78.8,93l2.9,4.5c0,0-10.1,19-14.6,17.6s-8.3-11.4-8.3-11.4L61.2,88.7z"></path> <path class="st22" d="M67.1,100.8l-5.9-12.1l-2.4,14.9c0,0,3.9,10,8.3,11.4c0.1,0,0.2,0,0.3,0.1L72.8,97L67.1,100.8z"></path> <path class="st23" d="M65.7,60.1c0,0,0.7,6.2,1.4,7.7h-1.9c0,0,0.1,5.9-1,6.7c-0.9,0.5-3.4,0-4,0.7s-1.4,5.6-1.4,5.6l-7.7-0.6 l0.8-6.9c0,0-4.3-5.2-3-11.6C50.1,55.3,64.6,54.2,65.7,60.1z"></path> <path class="st22" d="M56.1,70.4L50,70.1c0.9,1.9,1.9,3.1,1.9,3.1l-0.8,6.9l7.7,0.6c0,0,0.8-4.9,1.4-5.6c0.2-0.3,0.7-0.3,1.3-0.4 C58.5,73.9,55.8,70.6,56.1,70.4z"></path> <path class="st24" d="M66,62.1c0,0-1.6,1-4.9-1.2c0,0-2.2,4-4.1,3.5c0,0-0.1,2.8-0.5,3s-1.2-2.4-2.1-2.6c-0.8-0.2-1.7,0.7-0.8,3.1 c0.9,2.5,2.5,2.5,2.5,2.5l-4.2,2.8c0,0-3.3-1.1-4-3.8c0,0-4.3-4.2-1.7-7.1c0,0-2.8-2.4,3.8-5.3c0,0,1.5-5.7,4.6-3.1 c0,0,5.7-4.2,7.1-0.5c0,0,7.3-0.6,7.8,3.4s-1.3,4.9-1.3,4.9s0.4,3.3-1.6,3.5L66,62.1z"></path> <path class="st21" d="M45.7,88.2c0,0-3.9-0.9-3.2-5.1c0.7-4.1,6.1-6,17.2-3.4C61,80,62,82.2,61.2,84c0,0,3.6,8.7,4.7,15.9 c1.1,7.2,1.7,14.7,2.9,18.2c1.2,3.5,0.2,7.4-3.1,7.4c-3.3,0-16.2,0-20.2,0s-4.5-5.6-2.9-11.4C44,108.4,46.3,92.4,45.7,88.2z"></path> <path class="st14" d="M54.7,85.9c6.3,1.3,1.9,13.9,0.7,17.5c-1.3,3.6-2.7,6.8-0.7,9.6s5.5,5.9,5.5,5.9l-2.4,5 c0,0-13.2-1.7-16.3-5.6s-1.4-12.6,1.4-18.6C45.6,93.8,50,84.9,54.7,85.9z"></path> <path class="st25" d="M57.5,124.7L57.5,124.7c-0.2-0.1-0.2-0.3-0.2-0.4l3.2-7c0.1-0.2,0.3-0.2,0.4-0.2l0,0c0.2,0.1,0.2,0.3,0.2,0.4 l-3.2,7C57.8,124.7,57.6,124.8,57.5,124.7z"></path> </g> <g> <path class="st19" d="M163.3,116.4l-2.3,3.3c0,0-2.7,36.3-2,46.6c0.7,10.4,3.6,41,3.6,41l-13.1,6.3l19.2-1c0,0-1.9-3.6-0.6-13.2 c2.1-15.1,1.4-24.3-1-31.7c0,0,7.8-41.1,10.2-50.1L163.3,116.4z"></path> <path class="st22" d="M171.2,125.9l-11.9,46c1.1,12.9,3.2,35.6,3.2,35.6l-13.1,6.3l19.2-1c0,0-1.9-3.6-0.6-13.2 c2.1-15.1,1.4-24.3-1-31.7c0,0,3.7-19.7,6.8-34.8L171.2,125.9z"></path> <path class="st23" d="M168.9,192.4h-7.7c0.8,8.3,1.4,15,1.4,15l-13.1,6.3l19.2-1c0,0-1.9-3.6-0.6-13.2 C168.4,197,168.7,194.6,168.9,192.4z"></path> <path class="st19" d="M169.5,115.1c0,0,3.9,39.7,5.3,50c1.4,10.3,9,37.8,9.2,40.6s-4.4,12.6-4.4,12.6s10-6.6,12.4-9.8 c0,0-3.9-3.8-3.7-7.4c0.1-3.6-1.3-28.8-5.1-36c0,0,2.4-24.5,3-29.6c0.6-5,0.8-17.2-1.4-20.4L169.5,115.1L169.5,115.1z"></path> <path class="st22" d="M184.8,115.1h-15.3c0,0,0.1,0.7,0.2,1.9l-6.5-0.6l-2.3,3.3c0,0-0.1,1-0.2,2.8c8.5,1.9,20.2,0.6,25.7-0.1 C186.2,119.2,185.7,116.4,184.8,115.1z"></path> <path class="st20" d="M170.6,50.4c6.5-0.2,7.3,5.7,8.3,11.9s1.7,8.4,4,11.3s0.8,5.3,2.9,8.2c2.1,2.9,9.7,13.4,0.5,17.4 s-14.9,0.4-17.6-5c-2.7-5.4-3.8-8.8-7.1-11.4s-3.4-7.8-1.3-11.4c2.1-3.6,1.6-6.5,0.9-10.7C160.6,56.4,163.3,50.6,170.6,50.4z"></path> <path class="st22" d="M174.8,83.2c0.2-6.1-2.1-7.5-4.2-12.5c-2.1-5-7.4-8.2-7.4-8.2c-0.6,0.2-1.1,0.5-1.6,0.9 c0.4,2.8,0.3,5.2-1.3,7.9c-2.1,3.6-2,8.8,1.3,11.4c2,1.6,3.2,3.4,4.4,5.9C170.8,88.9,174.7,87.8,174.8,83.2z"></path> <path class="st23" d="M163.3,79.7c0,0-2.3,0.9-3.7,5.9c-1.3,4.9-5.3,21.4-5.3,21.4l-12,15.4c0,0-2.7,0.3-4.3,1.1 c-1.6,0.8-2.6,2.5-2.6,2.5s1.4-0.2,2.9-0.7l-2.9,4.7h5.6c0,0,3-2.6,4.5-5.8l14.9-15.2c0,0,2.9-15,4.1-18.4 C165.8,87.1,163.3,79.7,163.3,79.7z"></path> <path class="st22" d="M163.3,79.7c0,0-2.3,0.9-3.7,5.9c-1.3,4.9-5.3,21.4-5.3,21.4l-4.2,5.5l10.4-3.5c0,0,2.9-15,4.1-18.4 C165.8,87.1,163.3,79.7,163.3,79.7z"></path> <path class="st23" d="M163.3,62.5c0,0,3.4-1,5.6-2.6c0,0-1,1.6-0.4,1.6s4.2-3.8,4.2-3.8s-0.5,7.4,3.2,10.8v8.9h-6.4l-0.1-3.8 c0,0-1,0.4-1.5,0.4s-3.4-3.1-3.2-6.4C164.7,65.4,163.9,62.8,163.3,62.5z"></path> <path class="st22" d="M169.3,73.6l0.1,3.5c4.6-1.2,5-7.7,5-7.7C172.5,72.9,169.3,73.6,169.3,73.6z"></path> <path class="st0" d="M168.1,78.1v-2.3h8.6c0,0-0.2,2.1,0.5,2.6s5,1.4,6.1,3.4c1,1.9,2.2,10.7,0.8,18.1s-1.3,8.7-0.1,11.3 c1.1,2.5,2.9,6,3.1,8.6c0,0-16.7,3-26.1,0c0,0,4.3-10.6,3.8-15.9s-3.9-7.1-4.5-10.2c-0.5-3.1,2.1-7.6,2.1-7.6s-0.1-5.1,1-6.2 C164.2,78.8,168.1,78.1,168.1,78.1z"></path> <path class="st22" d="M187,119.8c-0.2-2.5-1.9-6-3.1-8.6c-1.1-2.4-1.2-3.7-0.1-9.7l-22.4-5.4l0,0c1.2,2,3,4,3.4,7.7 c0.5,5.3-3.8,15.9-3.8,15.9C170.3,122.7,187,119.8,187,119.8z"></path> <path class="st23" d="M182.5,80.9c0,0-2.7,1.5-2.5,6.8c0.2,5.2,1.8,15.9,1.8,15.9l-17.9-0.8c0,0-4.6-3-6.5-3.5 c-1.9-0.4-6.3-0.2-6.4,0.7c-0.1,1,4.6,2.5,4.6,2.5l2.1,2.1c0,0-3.5-1.1-3.6-0.5c-0.1,0.5,3.9,3.5,9.4,2.1c0,0,22.9,4,24.4,3 c1.8-1.2-0.9-16.6-1.2-18.9C186,88,185.1,82.7,182.5,80.9z"></path> <path class="st23" d="M184,205.7c0.2,2.8-4.4,12.6-4.4,12.6s10-6.6,12.4-9.8c0,0-3.9-3.8-3.7-7.4c0.1-1.5-0.2-6.8-0.7-13l-7.3,1.7 C182.2,197.6,183.9,204.4,184,205.7z"></path> <path class="st20" d="M167.6,207.4h-5l-13.1,6.3l19.2-1C168.6,212.7,167.8,211.2,167.6,207.4z"></path> <path class="st20" d="M192,208.5c0,0-1.8-1.8-2.9-4.1c-2.5,2.7-5.1,1.3-5.1,1.3c0.2,2.8-4.4,12.6-4.4,12.6S189.6,211.7,192,208.5z"></path> </g> <g> <linearGradient id="SVGID_10_" gradientUnits="userSpaceOnUse" x1="-2443.8269" y1="868.447" x2="-2443.8269" y2="910.9989" gradientTransform="matrix(-1 0 0.1879 1 -2458.9321 -780)"> <stop offset="0" style="stop-color:#FFFFFF"></stop> <stop offset="1" style="stop-color:#000000"></stop> </linearGradient> <polygon class="st26" points="128.7,111.1 175.9,111.1 170.3,81.2 123.1,81.2 "></polygon> <g> <polygon class="st8" points="130.1,89.2 144.1,89.2 144,88.6 130,88.6 "></polygon> <polygon class="st8" points="130.6,91.6 144.6,91.6 144.5,91 130.5,91 "></polygon> <polygon class="st8" points="131,94.1 145,94.1 144.9,93.5 130.9,93.5 "></polygon> <polygon class="st8" points="131.5,96.5 145.5,96.5 145.4,95.9 131.4,95.9 "></polygon> <polygon class="st8" points="132,99 146,99 145.8,98.4 131.8,98.4 "></polygon> <polygon class="st8" points="133,104.5 137.6,104.5 137.5,103.9 132.9,103.9 "></polygon> </g> <path class="st9" d="M167.8,82.9c0.1,0.4,0.4,0.7,0.8,0.7c0.4,0,0.6-0.3,0.5-0.7c-0.1-0.4-0.4-0.7-0.8-0.7 C168,82.3,167.7,82.6,167.8,82.9z"></path> <path class="st9" d="M164.8,82.9c0.1,0.4,0.4,0.7,0.8,0.7c0.4,0,0.6-0.3,0.5-0.7c-0.1-0.4-0.4-0.7-0.8-0.7S164.8,82.6,164.8,82.9z"></path> <path class="st9" d="M161.8,82.9c0.1,0.4,0.4,0.7,0.8,0.7s0.6-0.3,0.5-0.7c-0.1-0.4-0.4-0.7-0.8-0.7 C162,82.3,161.8,82.6,161.8,82.9z"></path> <g class="st10"> <path class="st27" d="M148.2,95.7c1,5.1,5.8,9.2,10.9,9.2c5.1,0,8.4-4.1,7.5-9.2c-1-5.1-5.8-9.2-10.9-9.2 C150.6,86.5,147.2,90.6,148.2,95.7z"></path> <g class="st12"> <g> <g> <g> <g> <defs> <path id="SVGID_11_" d="M148.2,95.7c1,5.1,5.8,9.2,10.9,9.2c5.1,0,8.4-4.1,7.5-9.2c-1-5.1-5.8-9.2-10.9-9.2 C150.6,86.5,147.2,90.6,148.2,95.7z"></path> </defs> <clipPath id="SVGID_12_"> <use xlink:href="#SVGID_11_" style="overflow:visible;"></use> </clipPath> <g class="st28"> <path class="st14" d="M153.9,93.6c0.3,1.7,2,3.1,3.7,3.1s2.9-1.4,2.5-3.1c-0.3-1.7-2-3.1-3.7-3.1S153.5,91.9,153.9,93.6z"></path> <path class="st14" d="M151.8,104.9c0.8,4,4.6,7.3,8.6,7.3s6.7-3.3,5.9-7.3s-4.6-7.3-8.6-7.3S151.1,100.9,151.8,104.9z"></path> </g> </g> </g> </g> </g> </g> </g> </g> <g> <polygon class="st17" points="154.4,93.5 148.2,93.5 147.3,88.5 153.5,88.5 "></polygon> <polygon class="st18" points="162,93.5 155.8,93.5 154.9,88.5 161.1,88.5 "></polygon> <polygon class="st1" points="170.7,98.7 162.1,98.7 161.4,94.7 169.9,94.7 "></polygon> <polygon class="st0" points="171.6,104.8 163.1,104.8 162.3,99.9 170.9,99.9 "></polygon> <polygon class="st1" points="172.2,108.8 150.8,108.8 150.3,106.2 171.8,106.2 "></polygon> <polygon class="st0" points="169.7,93.5 163.5,93.5 162.6,88.5 168.7,88.5 "></polygon> <polygon class="st19" points="156.4,105 150.2,105 148.5,94.7 154.6,94.7 "></polygon> <polygon class="st19" points="157.9,105 161.7,105 159.9,94.7 156.1,94.7 "></polygon> </g> <g> <path class="st22" d="M210.2,43.3c-8.6,0-15.5,6.9-15.5,15.5c0,1.6,0.2,3.2,0.7,4.6l-7.1,6.1l9.9-1c2.8,3.5,7.2,5.7,12,5.7 c8.6,0,15.5-6.9,15.5-15.5S218.8,43.3,210.2,43.3z"></path> <linearGradient id="SVGID_13_" gradientUnits="userSpaceOnUse" x1="197.9006" y1="933" x2="226.2234" y2="933" gradientTransform="matrix(1 0 0 1 0 -780)"> <stop offset="0" style="stop-color:#FFE7DB"></stop> <stop offset="0.326" style="stop-color:#FFE4D9"></stop> <stop offset="0.5573" style="stop-color:#FFDBD1"></stop> <stop offset="0.7592" style="stop-color:#FFCBC5"></stop> <stop offset="0.9434" style="stop-color:#FFB5B4"></stop> <stop offset="1" style="stop-color:#FFADAD"></stop> </linearGradient> <circle class="st29" cx="212" cy="153" r="14.2"></circle> <linearGradient id="SVGID_14_" gradientUnits="userSpaceOnUse" x1="11.9234" y1="859.7" x2="30.1551" y2="859.7" gradientTransform="matrix(1 0 0 1 0 -780)"> <stop offset="0" style="stop-color:#FFE7DB"></stop> <stop offset="0.326" style="stop-color:#FFE4D9"></stop> <stop offset="0.5573" style="stop-color:#FFDBD1"></stop> <stop offset="0.7592" style="stop-color:#FFCBC5"></stop> <stop offset="0.9434" style="stop-color:#FFB5B4"></stop> <stop offset="1" style="stop-color:#FFADAD"></stop> </linearGradient> <circle class="st30" cx="21" cy="79.7" r="9.1"></circle> <path class="st18" d="M209,40.7c-8.6,0-15.5,6.9-15.5,15.5c0,1.6,0.2,3.2,0.7,4.6l-7.1,6.1l9.9-1c2.8,3.5,7.2,5.7,12,5.7 c8.6,0,15.5-6.9,15.5-15.5S217.5,40.7,209,40.7z"></path> <path class="st22" d="M17.7,32.4c8.6,0,15.5,6.9,15.5,15.5c0,1.6-0.2,3.2-0.7,4.6l7.1,6.1l-9.9-1c-2.8,3.5-7.2,5.7-12,5.7 c-8.6,0-15.5-6.9-15.5-15.5S9.1,32.4,17.7,32.4z"></path> <path class="st18" d="M19,29.8c8.6,0,15.5,6.9,15.5,15.5c0,1.6-0.2,3.2-0.7,4.6l7.1,6.1L31,55c-2.8,3.5-7.2,5.7-12,5.7 c-8.6,0-15.5-6.9-15.5-15.5S10.4,29.8,19,29.8z"></path> <g> <g> <path class="st1" d="M199.4,50.5v9.7h9.7v-9.7h-3.2h-1.1h-1.1h-1.1H199.4z"></path> <path class="st31" d="M199.4,50.5v9.7h4.9v-9.7h-0.5h-1.1H199.4z"></path> <path class="st32" d="M199.4,60.2v2.2h7.6l4.3-4.3h3.3v-4.3H208l-3.9,3.8l1.5,1.5l2.3-2.3l0.8,0.8l-2.7,2.7h-6.6L199.4,60.2 L199.4,60.2z"></path> <path class="st33" d="M204.1,57.6l0.2,0.2v-0.4L204.1,57.6z"></path> <rect x="199.4" y="60.2" class="st33" width="4.9" height="2.2"></rect> <path class="st1" d="M217.8,52.6v6.5h-1.6l-0.5-1.1l-0.5,1.1h-1.6v-6.5H217.8z"></path> <rect x="215.1" y="55.9" class="st0" width="1.1" height="3.2"></rect> </g> <rect x="199.7" y="51.4" class="st14" width="3.9" height="1.4"></rect> <rect x="199.7" y="57.2" class="st14" width="2.7" height="0.9"></rect> <path class="st14" d="M202.9,54.3h-3c-0.1,0-0.1-0.1-0.1-0.1l0,0c0-0.1,0.1-0.1,0.1-0.1h3c0.1,0,0.1,0.1,0.1,0.1l0,0L202.9,54.3z"></path> <path class="st14" d="M203.2,54.7h-3.4c-0.1,0-0.1-0.1-0.1-0.1l0,0c0-0.1,0.1-0.1,0.1-0.1h3.4c0.1,0,0.1,0.1,0.1,0.1l0,0 C203.4,54.7,203.3,54.7,203.2,54.7z"></path> <path class="st14" d="M203.6,55.3h-3.7c-0.1,0-0.1-0.1-0.1-0.1l0,0c0-0.1,0.1-0.1,0.1-0.1h3.7c0.1,0,0.1,0.1,0.1,0.1l0,0 L203.6,55.3z"></path> <path class="st14" d="M202.9,55.7h-3c-0.1,0-0.1-0.1-0.1-0.1l0,0c0-0.1,0.1-0.1,0.1-0.1h3c0.1,0,0.1,0.1,0.1,0.1l0,0 C203,55.7,202.9,55.7,202.9,55.7z"></path> <path class="st14" d="M202.9,56.3h-3c-0.1,0-0.1-0.1-0.1-0.1l0,0c0-0.1,0.1-0.1,0.1-0.1h3c0.1,0,0.1,0.1,0.1,0.1l0,0L202.9,56.3z"></path> <path class="st14" d="M201.7,58.5h-1.9c0,0-0.1,0-0.1-0.1l0,0c0,0,0-0.1,0.1-0.1h1.9C201.8,58.3,201.8,58.3,201.7,58.5L201.7,58.5 C201.8,58.4,201.8,58.5,201.7,58.5z"></path> </g> <g> <path class="st34" d="M24.1,43.7c-0.1-0.7-0.5-1.4-1.5-1.4c-0.1,0-0.3,0.1-0.3,0.3l-0.2,1.2c-0.1,0.5-0.2,0.9-0.3,1.3 c-0.4,1.1-0.8,1.7-1.7,2.1c-0.4,0.2-0.7,0.3-0.9,0.4h-1.5c-0.2,0-0.3,0.1-0.3,0.3v5.5c0,0.2,0.1,0.3,0.3,0.3h1.5l0.7,0.5 c0.5,0.4,1.2,0.7,1.9,0.7h1.9c0.2,0,0.3-0.1,0.3-0.3c0-0.1-0.1-0.2-0.2-0.3v-6.1h-0.4L24,45C24.2,44.5,24.2,44.1,24.1,43.7z"></path> <path class="st35" d="M17.7,46.9h-2.4c-0.2,0-0.3,0.1-0.3,0.3v6.5c0,0.2,0.1,0.3,0.3,0.3h2.4c0.2,0,0.3-0.1,0.3-0.3v-6.5 C18,47,17.9,46.9,17.7,46.9z"></path> <path class="st36" d="M15.1,52.8v0.9c0,0.2,0.1,0.3,0.3,0.3h2.3c0.2,0,0.3-0.1,0.3-0.3v-0.9H15.1z"></path> <path class="st37" d="M23,53.9c0-0.5,0.4-0.9,0.9-0.9c-0.5,0-0.9-0.4-0.9-0.9s0.4-0.9,0.9-0.9c-0.5,0-0.9-0.4-0.9-0.9 s0.4-0.9,0.9-0.9c-0.5,0-0.9-0.4-0.9-0.9s0.4-0.9,0.9-0.9h-1c-0.5,0-0.9,0.4-0.9,0.9s0.4,0.9,0.9,0.9c-0.5,0-0.9,0.4-0.9,0.9 s0.4,0.9,0.9,0.9c-0.5,0-0.9,0.4-0.9,0.9s0.4,0.9,0.9,0.9c-0.5,0-0.9,0.4-0.9,0.9s0.4,0.9,0.9,0.9h1C23.4,54.8,23,54.4,23,53.9z"></path> <path class="st38" d="M16.1,38.4C16,38.2,15.9,38,15.6,38l-1.4-0.2l-0.6-1.3c-0.1-0.2-0.3-0.3-0.5-0.3s-0.4,0.1-0.5,0.3L12,37.8 L10.6,38c-0.2,0-0.4,0.2-0.5,0.4s0,0.4,0.1,0.6l1,1L11,41.4c0,0.2,0,0.4,0.2,0.6c0.1,0.1,0.2,0.1,0.3,0.1c0.1,0,0.2,0,0.3-0.1 l1.2-0.7l1.2,0.7c0.2,0.1,0.4,0.1,0.6,0s0.3-0.3,0.2-0.6L14.9,40l1-1C16.1,38.9,16.1,38.6,16.1,38.4z"></path> <path class="st39" d="M15.6,38L15.6,38L14,39.5c-0.1,0.1-0.1,0.2-0.1,0.3l0.4,2.1l0,0c0.2,0.1,0.4,0.1,0.6,0s0.3-0.3,0.2-0.6 L14.9,40l1-1c0.2-0.2,0.2-0.4,0.1-0.6C16,38.2,15.8,38.1,15.6,38z"></path> <path class="st38" d="M22.5,36.2c-0.1-0.2-0.2-0.4-0.5-0.4l-1.4-0.2L20,34.3c-0.1-0.1-0.3-0.3-0.5-0.3s-0.4,0.1-0.5,0.3l-0.6,1.3 L17,35.8c-0.2,0-0.4,0.2-0.5,0.4s0,0.4,0.1,0.6l1,1l-0.2,1.4c0,0.2,0,0.4,0.2,0.6c0.2,0.1,0.4,0.1,0.6,0l1.2-0.7l1.2,0.7 c0.1,0,0.2,0.1,0.3,0.1c0.1,0,0.2,0,0.3-0.1c0.2-0.1,0.3-0.3,0.2-0.6l-0.2-1.4l1-1C22.5,36.6,22.5,36.4,22.5,36.2z"></path> <path class="st39" d="M21.3,39.7c0.2-0.1,0.3-0.3,0.2-0.6l-0.2-1.4l1-1c0.2-0.2,0.2-0.4,0.1-0.6c-0.1-0.2-0.2-0.4-0.5-0.4l0,0 l-1.6,1.5c-0.1,0.1-0.1,0.2-0.1,0.3l0.3,1.7l0.1,0.4h0.1c0.1,0,0.2,0.1,0.3,0.1C21.1,39.8,21.2,39.8,21.3,39.7z"></path> <path class="st38" d="M28.8,38.4c-0.1-0.2-0.2-0.4-0.5-0.4l-1.4-0.2l-0.6-1.3c-0.1-0.2-0.3-0.3-0.5-0.3s-0.4,0.1-0.5,0.3l-0.6,1.3 L23.4,38c-0.2,0-0.4,0.2-0.5,0.4s0,0.4,0.1,0.6l1,1l-0.2,1.4c0,0.2,0,0.4,0.2,0.6c0.2,0.1,0.4,0.1,0.6,0l1.2-0.7L27,42 c0.1,0,0.2,0.1,0.3,0.1s0.2,0,0.3-0.1c0.2-0.1,0.3-0.3,0.2-0.6L27.7,40l1-1C28.9,38.9,28.9,38.6,28.8,38.4z"></path> <path class="st39" d="M28.8,38.4c-0.1-0.2-0.2-0.4-0.5-0.4l0,0l-1.6,1.5c0,0.2,0,0.3,0,0.4l0.3,2h0.1c0.1,0,0.2,0.1,0.3,0.1 s0.2,0,0.3-0.1c0.2-0.1,0.3-0.3,0.2-0.6L27.7,40l1-1C28.9,38.9,28.9,38.6,28.8,38.4z"></path> <path class="st1" d="M15.4,46.3h-5.1c-0.2,0-0.3,0.1-0.3,0.3v7.8c0,0.2,0.1,0.3,0.3,0.3h5.1c0.2,0,0.3-0.1,0.3-0.3v-7.8 C15.7,46.4,15.5,46.3,15.4,46.3z"></path> <path class="st19" d="M9.9,53.5v0.9c0,0.2,0.1,0.3,0.3,0.3h5.1c0.2,0,0.3-0.1,0.3-0.3v-0.9H9.9z"></path> <circle class="st14" cx="13.8" cy="52.8" r="0.5"></circle> <path class="st40" d="M26.9,47.8h-3.2c-0.6,0-1,0.5-1,1V49c0,0.6,0.5,1,1,1h3.2c0.6,0,1-0.5,1-1v-0.2 C27.9,48.2,27.5,47.8,26.9,47.8z"></path> <path class="st34" d="M26.9,49h-3.2c-0.4,0-0.8-0.3-0.9-0.6c-0.1,0.1-0.1,0.3-0.1,0.4V49c0,0.6,0.5,1,1,1h3.2c0.6,0,1-0.5,1-1 v-0.2c0-0.1,0-0.3-0.1-0.4C27.7,48.7,27.3,49,26.9,49z"></path> <path class="st40" d="M27.3,49.4h-3.6c-0.6,0-1,0.5-1,1v0.2c0,0.6,0.5,1,1,1h3.5c0.6,0,1-0.5,1-1v-0.2 C28.3,49.8,27.8,49.4,27.3,49.4z"></path> <path class="st34" d="M27.3,50.6h-3.6c-0.4,0-0.8-0.3-0.9-0.6c-0.1,0.1-0.1,0.3-0.1,0.4v0.2c0,0.6,0.5,1,1,1h3.5c0.6,0,1-0.5,1-1 v-0.2c0-0.1,0-0.3-0.1-0.4C28.1,50.3,27.7,50.6,27.3,50.6z"></path> <path class="st40" d="M26.8,51h-3c-0.6,0-1.1,0.5-1.1,1.1s0.5,1.1,1.1,1.1h3c0.6,0,1.1-0.5,1.1-1.1C27.9,51.5,27.4,51,26.8,51z"></path> <path class="st34" d="M26.8,52.2h-3c-0.4,0-0.8-0.2-1-0.6c-0.1,0.1-0.1,0.3-0.1,0.5c0,0.6,0.5,1.1,1.1,1.1h3 c0.6,0,1.1-0.5,1.1-1.1c0-0.2,0-0.3-0.1-0.5C27.6,51.9,27.3,52.2,26.8,52.2z"></path> <path class="st40" d="M26,52.6h-2.2c-0.6,0-1.1,0.5-1.1,1.1s0.5,1.1,1.1,1.1H26c0.6,0,1.1-0.5,1.1-1.1 C27.1,53.1,26.6,52.6,26,52.6z"></path> <path class="st34" d="M26,53.8h-2.2c-0.4,0-0.8-0.2-1-0.6c-0.1,0.1-0.1,0.3-0.1,0.5c0,0.6,0.5,1.1,1.1,1.1H26 c0.6,0,1.1-0.5,1.1-1.1c0-0.2,0-0.3-0.1-0.5C26.8,53.5,26.4,53.8,26,53.8z"></path> </g> </g> <g> <linearGradient id="SVGID_15_" gradientUnits="userSpaceOnUse" x1="83.8597" y1="935.9" x2="133.2747" y2="935.9" gradientTransform="matrix(1 0 0 1 0 -780)"> <stop offset="0" style="stop-color:#FFFFFF"></stop> <stop offset="1" style="stop-color:#392ECF"></stop> </linearGradient> <path class="st41" d="M130.3,130.1H86.8c-1.6,0-2.9,1.3-2.9,2.9v45.8c0,1.6,1.3,2.9,2.9,2.9h43.5c1.6,0,2.9-1.3,2.9-2.9V133 C133.3,131.4,131.9,130.1,130.3,130.1z"></path> <path class="st14" d="M128.7,128.4H85.2c-1.6,0-2.9,1.3-2.9,2.9v45.8c0,1.6,1.3,2.9,2.9,2.9h43.5c1.6,0,2.9-1.3,2.9-2.9v-45.8 C131.6,129.7,130.3,128.4,128.7,128.4z"></path> <path class="st0" d="M128.7,128.4H85.2c-1.6,0-2.9,1.3-2.9,2.9v4.2h49.4v-4.2C131.6,129.7,130.3,128.4,128.7,128.4z"></path> <g> <circle class="st14" cx="85.5" cy="132.1" r="1"></circle> <circle class="st14" cx="90" cy="132.1" r="1"></circle> <circle class="st14" cx="94.4" cy="132.1" r="1"></circle> </g> <g> <rect x="124.1" y="130.7" class="st14" width="3.2" height="0.4"></rect> <rect x="124.1" y="131.8" class="st14" width="3.2" height="0.4"></rect> <rect x="124.1" y="132.8" class="st14" width="3.2" height="0.4"></rect> </g> <g> <rect x="88.4" y="141.1" class="st22" width="38.4" height="14"></rect> <rect x="87.7" y="140.2" class="st42" width="38.4" height="14"></rect> <g> <line class="st43" x1="90.4" y1="148" x2="122.1" y2="148"></line> <line class="st43" x1="90.4" y1="150.4" x2="122.1" y2="150.4"></line> <line class="st43" x1="90.4" y1="152.8" x2="104.4" y2="152.8"></line> </g> <g> <path class="st44" d="M92.3,142.1c0.1-0.3,0.3-0.5,0.7-0.5c0.3,0,0.6,0.1,0.8,0.4c0.2,0.2,0.3,0.5,0.4,0.7 c0.4,0.7,0.8,1.4,1.2,2.1c0.3,0.5,0,1.1-0.5,1.2c-0.3,0.1-0.7-0.1-0.9-0.4c-0.3-0.5-0.6-1-0.8-1.5c0,0,0-0.1-0.1-0.1 c-0.1-0.1-0.1-0.2-0.2-0.3c-0.2-0.3-0.3-0.5-0.5-0.8C92.3,142.7,92.2,142.5,92.3,142.1C92.3,142.2,92.3,142.1,92.3,142.1z"></path> <path class="st45" d="M100.4,143.8c0.2,0,0.4,0,0.6,0c0.1,0,0.1,0,0.1,0.1c0.1,1-0.6,1.6-1.4,1.7c-1,0-1.8-0.7-1.7-1.6 c0-0.9,0.9-1.7,1.8-1.6c0.3,0,0.6,0.2,0.9,0.4c0,0,0.1,0.1,0,0.1c-0.1,0.1-0.1,0.2-0.2,0.2s-0.2-0.1-0.3-0.1 c-0.4-0.2-0.9-0.2-1.2,0.1c-0.4,0.3-0.5,0.7-0.4,1.2s0.4,0.8,0.9,0.9c0.3,0.1,0.6,0,0.9-0.2c0.2-0.1,0.3-0.3,0.3-0.5 c0-0.1,0-0.1-0.1-0.1c-0.3,0-0.6,0-0.9,0c-0.1,0-0.1,0-0.1-0.1s0-0.3,0-0.3c0.1-0.1,0.2,0,0.3,0 C100.1,143.8,100.2,143.8,100.4,143.8z"></path> <path class="st45" d="M107.5,145.3c-0.4,0.3-0.9,0.3-1.3-0.1c-0.4-0.4-0.4-1,0-1.4c0.3-0.3,0.7-0.4,1-0.3c0.1,0,0.2,0.1,0.3,0.2 c0,0,0,0,0-0.1s0-0.1,0.1-0.1s0.3,0,0.3,0c0.1,0.1,0,0.2,0,0.3c0,0.5,0,1,0,1.6c0,0.1,0,0.2,0,0.4c-0.1,0.4-0.4,0.7-0.9,0.7 c-0.4,0-0.8-0.2-1-0.6v-0.1h0.1c0.1,0,0.2-0.1,0.2-0.1c0.1,0,0.1,0.1,0.1,0.2c0.2,0.2,0.4,0.2,0.6,0.2c0.2-0.1,0.3-0.2,0.3-0.4 C107.5,145.5,107.5,145.4,107.5,145.3z"></path> <path class="st46" d="M92.3,142.2c0,0.2,0,0.4,0.2,0.6c0.2,0.3,0.4,0.7,0.6,1v0.1c-0.3,0.4-0.5,0.9-0.8,1.3c0,0,0,0.1-0.1,0.1 c0-0.1,0-0.2,0-0.3c0-0.3-0.2-0.6-0.5-0.7c-0.3-0.1-0.6-0.1-0.8,0.1l-0.1,0.1c0.4-0.6,0.7-1.3,1.1-1.9 C92.1,142.5,92.2,142.3,92.3,142.2L92.3,142.2z"></path> <path class="st45" d="M111.9,145.5c0.1-0.3,0.3-0.7,0.4-1c0.2-0.6,0.4-1.2,0.7-1.7c0-0.1,0.1-0.1,0.1-0.1c0.1,0,0.2,0,0.3,0 c0.1,0.1,0.1,0.2,0.1,0.3c0.3,0.8,0.6,1.6,0.9,2.4v0.1l0,0c-0.1,0-0.3,0-0.4,0c-0.1-0.1-0.1-0.2-0.1-0.3s-0.1-0.2-0.1-0.4 c0-0.1,0-0.1-0.1-0.1c-0.3,0-0.7,0-1,0c-0.1,0-0.1,0-0.1,0.1c-0.1,0.2-0.1,0.4-0.2,0.6c0,0.1,0,0.1-0.1,0.1 C112.1,145.4,112,145.5,111.9,145.5z"></path> <path class="st45" d="M116,145.2c-0.4,0.5-1.1,0.4-1.4-0.1c-0.3-0.4-0.2-1.1,0.2-1.4c0.4-0.3,0.9-0.3,1.2,0.1l0,0 c0-0.3,0-0.7,0-1c0-0.1,0-0.1,0.1-0.1c0.3,0,0.3,0,0.3,0.3c0,0.8,0,1.6,0,2.5c0,0.1,0,0.1-0.1,0.1s-0.2,0-0.2,0 C116,145.4,116.1,145.3,116,145.2z"></path> <path class="st45" d="M109.9,143.5c0.4,0,0.8,0.3,0.9,0.7c0,0.1,0,0.1-0.1,0.1c-0.4,0.2-0.8,0.3-1.2,0.5c-0.1,0-0.1,0.1,0,0.1 c0.2,0.3,0.6,0.3,0.9,0c0.1-0.1,0.1-0.1,0.2,0s0.1,0.1,0.2,0.1c0,0,0.1,0.1,0,0.1c-0.3,0.3-0.6,0.5-1,0.4s-0.7-0.3-0.8-0.7 c-0.1-0.4,0-0.9,0.4-1.1C109.5,143.5,109.7,143.4,109.9,143.5z"></path> <path class="st45" d="M101.4,144.5c0-0.6,0.4-1,1-1s1,0.4,1,1s-0.4,1-1,1S101.4,145.1,101.4,144.5z"></path> <path class="st45" d="M103.6,144.5c0-0.6,0.4-1,1-1s1,0.4,1,1s-0.4,1-1,1C104.1,145.5,103.6,145.1,103.6,144.5z"></path> <path class="st47" d="M90.9,144.6c0.2-0.1,0.3-0.2,0.6-0.3c0.6-0.1,1,0.5,0.8,1c-0.1,0.3-0.4,0.5-0.7,0.6c-0.3,0-0.6-0.1-0.8-0.4 C90.6,145.3,90.6,145,90.9,144.6C90.8,144.6,90.9,144.6,90.9,144.6z"></path> <path class="st45" d="M117.5,143.5c0.3,0,0.5,0.1,0.7,0.4c0,0.1,0,0.1,0,0.1l0,0c-0.1,0.1-0.2,0.1-0.3-0.1 c-0.1-0.2-0.5-0.2-0.6-0.1c-0.1,0.1-0.1,0.3,0,0.3c0.1,0.1,0.3,0.1,0.4,0.1s0.2,0,0.3,0.1c0.4,0.2,0.4,0.7,0.1,1 c-0.4,0.3-1.1,0.1-1.3-0.3c0-0.1,0-0.1,0-0.1l0,0c0.1,0,0.1-0.1,0.2-0.1s0.1,0.1,0.1,0.2c0.1,0.2,0.4,0.2,0.6,0.1 c0.1,0,0.2-0.1,0.2-0.2c0-0.1-0.1-0.2-0.2-0.2c-0.1-0.1-0.3-0.1-0.4-0.1s-0.2-0.1-0.4-0.2c-0.3-0.2-0.3-0.6,0-0.8 C117.1,143.5,117.2,143.5,117.5,143.5z"></path> <path class="st45" d="M108.2,143.9c0-0.5,0-0.9,0-1.4c0-0.1,0-0.1,0.1-0.1s0.2,0,0.3,0c0.1,0,0.1,0,0.1,0.1c0,0.8,0,1.6,0,2.4 c0,0.2,0,0.3,0,0.5c0,0.1,0,0.1-0.1,0.1s-0.2,0-0.3,0c-0.1,0-0.1,0-0.1-0.1C108.2,144.9,108.2,144.4,108.2,143.9z"></path> <path class="st48" d="M92.3,142.2L92.3,142.2c0-0.1,0-0.1,0-0.1C92.3,142.1,92.3,142.2,92.3,142.2z"></path> <path class="st42" d="M106.4,144.4c0-0.2,0.1-0.3,0.2-0.5c0.2-0.2,0.6-0.1,0.7,0.1c0.2,0.2,0.2,0.6,0,0.8 c-0.1,0.2-0.4,0.3-0.6,0.2C106.5,145,106.4,144.8,106.4,144.4z"></path> <path class="st42" d="M112.7,144.3c0.2-0.4,0.3-0.8,0.5-1.3c0.1,0.2,0.1,0.3,0.2,0.5s0.2,0.5,0.3,0.7c0,0.1,0,0.1,0,0.1 C113.2,144.3,113,144.3,112.7,144.3z"></path> <path class="st42" d="M114.8,144.5c0-0.2,0.1-0.4,0.2-0.5c0.3-0.3,0.8-0.2,1,0.2c0.1,0.2,0.1,0.5,0,0.7s-0.4,0.4-0.6,0.3 c-0.3,0-0.5-0.3-0.5-0.5C114.8,144.6,114.8,144.5,114.8,144.5z"></path> <path class="st42" d="M110,143.9c0.1,0,0.2,0,0.3,0.1v0.1c-0.3,0.1-0.5,0.2-0.8,0.3c-0.1,0-0.1,0-0.1,0 C109.4,144.1,109.7,143.9,110,143.9z"></path> <path class="st42" d="M103,144.5c0,0.5-0.4,0.8-0.8,0.6c-0.3-0.1-0.4-0.4-0.3-0.7s0.3-0.5,0.5-0.5 C102.7,143.8,103,144.1,103,144.5z"></path> <path class="st42" d="M105.2,144.5c0,0.4-0.4,0.7-0.7,0.6c-0.3-0.1-0.4-0.4-0.4-0.7s0.3-0.5,0.5-0.5 C104.9,143.8,105.2,144.1,105.2,144.5C105.2,144.4,105.2,144.5,105.2,144.5z"></path> </g> </g> <g> <rect x="88.4" y="160.7" class="st22" width="38.4" height="14"></rect> <rect x="87.7" y="159.8" class="st42" width="38.4" height="14"></rect> <g> <line class="st43" x1="90.4" y1="167.6" x2="122.1" y2="167.6"></line> <line class="st43" x1="90.4" y1="170.1" x2="122.1" y2="170.1"></line> <line class="st43" x1="90.4" y1="172.5" x2="104.4" y2="172.5"></line> </g> <g> <g> <g> <path class="st49" d="M92.3,161.6h0.6c0.6,1.4,1.1,2.7,1.7,4.1c-0.3,0-0.6,0-0.8,0c-0.1-0.4-0.3-0.7-0.4-1.1c-0.5,0-1,0-1.5,0 c-0.1,0.4-0.3,0.7-0.4,1.1c-0.3,0-0.5,0-0.8,0l0,0l0,0c0,0,0.1-0.1,0.1-0.2C91.3,164.2,91.8,162.9,92.3,161.6z M92.6,162.6 c-0.2,0.4-0.3,0.8-0.5,1.3c0.3,0,0.6,0,0.9,0C92.9,163.5,92.8,163.1,92.6,162.6C92.6,162.7,92.6,162.7,92.6,162.6z"></path> </g> <g> <path class="st49" d="M96.9,161.6h0.7c0,1.4,0,2.7,0,4.1c-0.2,0-0.5,0-0.7,0c0-0.1,0-0.3,0-0.4c-0.2,0.3-0.5,0.5-0.9,0.5h-0.2 c-0.3,0-0.6-0.2-0.9-0.4s-0.5-0.6-0.5-0.9c-0.1-0.4,0-0.7,0.1-1.1c0.3-0.5,0.9-0.9,1.5-0.9c0.3,0,0.6,0.1,0.9,0.4 C96.9,162.4,96.9,162,96.9,161.6z M95.9,163.2c-0.5,0.1-0.8,0.6-0.7,1.1c0,0.3,0.2,0.5,0.4,0.7c0.2,0.1,0.4,0.2,0.6,0.1 c0.2,0,0.4-0.2,0.6-0.4s0.2-0.5,0.2-0.8c0-0.2-0.2-0.4-0.4-0.6C96.4,163.2,96.2,163.1,95.9,163.2z"></path> </g> </g> <g> <g> <path class="st50" d="M98,161.6h1.4c0.3,0,0.6,0.1,0.8,0.2c0.2,0.2,0.4,0.4,0.5,0.7s0.1,0.6-0.1,0.9c-0.1,0.2-0.2,0.4-0.4,0.5 c-0.2,0.1-0.4,0.2-0.5,0.2c0.4,0.5,0.7,1,1.1,1.5c-0.3,0-0.6,0-0.9,0c-0.4-0.5-0.7-1-1.1-1.6c0,0.5,0,1,0,1.6 c-0.3,0-0.5,0-0.8,0C98,164.3,98,162.9,98,161.6z M98.8,162.3c0,0.4,0,0.8,0,1.2c0.2,0,0.4,0,0.6,0s0.4-0.1,0.5-0.2 c0.2-0.2,0.2-0.6,0-0.8c-0.1-0.1-0.3-0.2-0.5-0.2C99.1,162.3,99,162.3,98.8,162.3z"></path> </g> <path class="st50" d="M104.2,161.6h0.7c0,1.4,0,2.7,0,4.1c-0.2,0-0.5,0-0.7,0C104.2,164.3,104.2,162.9,104.2,161.6z"></path> <path class="st50" d="M105.3,161.6h0.7c0,1.1,0,2.3,0,3.4c0.7,0,1.4,0,2,0c0.1,0,0.2,0,0.3-0.1c0.1-0.1,0.2-0.2,0.2-0.3 s0-0.3-0.2-0.4c-0.1-0.1-0.3-0.1-0.5,0c-0.1,0-0.2,0.1-0.2,0.2c-0.1-0.2-0.2-0.3-0.4-0.5c0-0.1,0.1-0.1,0.1-0.1 c0.2-0.2,0.5-0.3,0.8-0.3s0.5,0.1,0.7,0.3s0.3,0.5,0.3,0.7c0,0.3-0.1,0.6-0.4,0.8c-0.2,0.2-0.5,0.2-0.8,0.2c-0.9,0-1.8,0-2.7,0 C105.3,164.3,105.3,162.9,105.3,161.6z"></path> <g> <path class="st50" d="M100.9,163.3c0.3-0.5,0.8-0.8,1.4-0.8c0.3,0,0.7,0.1,0.9,0.3c0.3,0.2,0.5,0.5,0.6,0.8s0.1,0.7,0,1.1 c-0.1,0.3-0.3,0.6-0.5,0.8c-0.3,0.2-0.6,0.3-0.9,0.3h-0.2c-0.2,0-0.4,0-0.5-0.1c-0.5-0.2-0.9-0.7-1-1.2 C100.7,164.1,100.7,163.7,100.9,163.3z M102.2,163.2c-0.2,0-0.4,0.2-0.5,0.3c-0.3,0.4-0.3,1,0,1.3c0.2,0.2,0.5,0.3,0.8,0.3 c0.2,0,0.4-0.2,0.6-0.4s0.2-0.5,0.1-0.8s-0.2-0.5-0.5-0.6C102.6,163.2,102.4,163.1,102.2,163.2z"></path> </g> </g> </g> </g> </g> <g> <circle class="st51" cx="130.4" cy="152.7" r="9"></circle> <polygon class="st14" points="136.1,151.4 126.5,149 128.9,158.6 130.7,156.8 141,168.2 145.7,163.5 134.4,153.2 "></polygon> </g> <g> <line class="st52" x1="197.9" y1="120.3" x2="202.6" y2="120.3"></line> <line class="st52" x1="200.2" y1="118" x2="200.2" y2="122.7"></line> </g> <g> <line class="st52" x1="90.2" y1="116.4" x2="94.9" y2="116.4"></line> <line class="st52" x1="92.6" y1="114.1" x2="92.6" y2="118.8"></line> </g> <g> <line class="st52" x1="141.8" y1="181.8" x2="146.5" y2="181.8"></line> <line class="st52" x1="144.1" y1="179.4" x2="144.1" y2="184.1"></line> </g> <g> <line class="st52" x1="29.3" y1="117.2" x2="34" y2="117.2"></line> <line class="st52" x1="31.7" y1="114.8" x2="31.7" y2="119.5"></line> </g> <circle class="st14" cx="208.1" cy="51.4" r="0.6"></circle> </svg> 