<?xml version="1.0" standalone="no"?>
<svg xmlns:xlink="http://www.w3.org/1999/xlink" id="wave" style="transform:rotate(0deg); transition: 0.3s" viewBox="0 0 1440 100" version="1.1" xmlns="http://www.w3.org/2000/svg"><defs><linearGradient id="sw-gradient-0" x1="0" x2="0" y1="1" y2="0"><stop stop-color="rgba(255, 255, 255, 1)" offset="0%"/><stop stop-color="rgba(246.213, 246.213, 246.213, 1)" offset="100%"/></linearGradient></defs><path style="transform:translate(0, 0px); opacity:1" fill="url(#sw-gradient-0)" d="M0,90L40,75C80,60,160,30,240,18.3C320,7,400,13,480,26.7C560,40,640,60,720,60C800,60,880,40,960,36.7C1040,33,1120,47,1200,45C1280,43,1360,27,1440,21.7C1520,17,1600,23,1680,30C1760,37,1840,43,1920,46.7C2000,50,2080,50,2160,45C2240,40,2320,30,2400,25C2480,20,2560,20,2640,16.7C2720,13,2800,7,2880,13.3C2960,20,3040,40,3120,51.7C3200,63,3280,67,3360,68.3C3440,70,3520,70,3600,68.3C3680,67,3760,63,3840,55C3920,47,4000,33,4080,25C4160,17,4240,13,4320,10C4400,7,4480,3,4560,15C4640,27,4720,53,4800,63.3C4880,73,4960,67,5040,53.3C5120,40,5200,20,5280,21.7C5360,23,5440,47,5520,61.7C5600,77,5680,83,5720,86.7L5760,90L5760,100L5720,100C5680,100,5600,100,5520,100C5440,100,5360,100,5280,100C5200,100,5120,100,5040,100C4960,100,4880,100,4800,100C4720,100,4640,100,4560,100C4480,100,4400,100,4320,100C4240,100,4160,100,4080,100C4000,100,3920,100,3840,100C3760,100,3680,100,3600,100C3520,100,3440,100,3360,100C3280,100,3200,100,3120,100C3040,100,2960,100,2880,100C2800,100,2720,100,2640,100C2560,100,2480,100,2400,100C2320,100,2240,100,2160,100C2080,100,2000,100,1920,100C1840,100,1760,100,1680,100C1600,100,1520,100,1440,100C1360,100,1280,100,1200,100C1120,100,1040,100,960,100C880,100,800,100,720,100C640,100,560,100,480,100C400,100,320,100,240,100C160,100,80,100,40,100L0,100Z"/></svg>